<svg id="Layer_1" data-name="Layer 1" xmlns="http://www.w3.org/2000/svg" viewBox="0 0 444.9 200.04">
  <defs>
    <style>
      .cls-1 {
        fill: #e9ecef;
      }
    </style>
  </defs>
  <title>Logo UHUMDRUM - horizontal</title>
  <g>
    <path class="cls-1" d="M363.64,0V177l-5.87,7.69L351.91,177V0H336.52V184.64L357.77,200,379,184.64V0Z"/>
    <path class="cls-1" d="M27.12,0V177l-5.87,7.69L15.39,177V0H0V184.64L21.25,200l21.26-15.39V0Z"/>
    <path class="cls-1" d="M135.38,0V177l-5.87,7.69L123.65,177V0H108.26V184.64L129.51,200l21.26-15.39V0Z"/>
    <path class="cls-1" d="M324.89,15.39,297.77,0H282.39V200h15.38V92.32L309.5,100V200h15.39V92.32l-15.39-7.7,15.39-7.69ZM309.5,69.24l-11.73,7.69V15.39l11.73,7.69Z"/>
    <path class="cls-1" d="M243.66,0H228.27V200h15.39l27.11-15.38V15.39Zm11.73,177-11.73,7.7V15.39l11.73,7.69Z"/>
    <polygon class="cls-1" points="54.13 0 69.52 0 69.52 76.94 81.25 76.94 81.25 0 96.64 0 96.64 200.04 81.25 200.04 81.25 92.33 69.52 92.33 69.52 200.04 54.13 200.04 54.13 0"/>
    <polygon class="cls-1" points="216.64 0 216.64 200.03 201.25 200.03 201.25 46.18 189.52 76.95 177.78 46.18 177.78 200.03 162.4 200.03 162.4 0 177.78 7.5 189.52 30.79 201.25 7.5 216.64 0"/>
    <polygon class="cls-1" points="444.9 0 444.9 200.03 429.5 200.03 429.5 46.18 417.77 76.95 406.04 46.18 406.04 200.03 390.65 200.03 390.65 0 406.04 7.5 417.77 30.79 429.5 7.5 444.9 0"/>
  </g>
</svg>
