<svg id="Layer_1" data-name="Layer 1" xmlns="http://www.w3.org/2000/svg" xmlns:xlink="http://www.w3.org/1999/xlink" viewBox="0 0 374.62 397.13">
  <defs>
    <style>
      .cls-1, .cls-2 {
        fill: none;
      }

      .cls-2, .cls-5 {
        clip-path: url(#clip-path);
      }

      .cls-3 {
        fill: #ed4c39;
      }

      .cls-4 {
        fill: #2c3b38;
      }
    </style>
    <clipPath id="clip-path">
      <polygon class="cls-1" points="45.04 73.64 20.44 75.25 5.67 95.95 21.31 164.87 71.97 149.44 69.13 244.73 104.85 206.47 82.89 126.54 29 153.23 10.85 102.1 34.36 83.3 40.16 103.06 44.2 102.39 45.04 73.64"/>
    </clipPath>
  </defs>
  <title>Tentacle2</title>
  <g>
    <g>
      <polygon class="cls-3" points="114.4 196.25 87.4 109.13 35.52 144.22 20.16 103.95 33.07 91 35.49 99.23 29.79 104.79 44.2 102.39 45.04 73.64 20.44 75.25 5.67 95.95 21.31 164.87 71.97 149.44 69.13 244.73 114.4 196.25"/>
      <polygon class="cls-4" points="104.85 206.47 82.89 126.54 29 153.23 10.85 102.1 34.36 83.3 40.16 103.07 44.2 102.39 45.04 73.64 20.44 75.25 5.67 95.95 21.31 164.87 71.97 149.44 69.13 244.73 104.85 206.47"/>
    </g>
    <g class="cls-5">
      <g id="_2s2bg4" data-name="2s2bg4">
        <g>
          <path class="cls-3" d="M64.17,124.27A2.9,2.9,0,0,1,64,124c-.57-.15-1-.14-1.16-.31a2.66,2.66,0,0,0-2.41-.65c-1.19.26-2.39.44-3.59.65.29.91.29.91,2,1.06l-.4.86,1.16.57.13-.22a2.83,2.83,0,0,1-.44-.3c-.12-.14-.31-.37-.27-.46a1.4,1.4,0,0,1,.52-.56c.1,0,.39.1.48.24.28.45.51.93.79,1.46,1.37.33,1.56.24,2-1.33.21-.81.83-.69,1.4-.73Z"/>
          <path class="cls-3" d="M79.84,157.84c.39,0,.86,0,.9-.07.25-.59.74-1.44.51-1.79a13.49,13.49,0,0,1-.77-1.78c-.07-.13-.86-.08-1.12.13a9.67,9.67,0,0,0-1.89,1.89.86.86,0,0,0,.44,1.42l.14,1.48,1.76-.9Z"/>
          <path class="cls-3" d="M83,187.74a19.62,19.62,0,0,0-.47,2,6.18,6.18,0,0,0,0,1.82c.09.52.3,1,1.08.55.31-.16,1,.27,1.43.46.3.12.58.32.89.48l.86-1.33-1,.22.2-.6a2.58,2.58,0,0,1-1.67-2.11,6,6,0,0,0-.82-1.54Z"/>
          <path class="cls-3" d="M47.91,144.31c1.23.47,2.69,1.27,4.46.68-.11-.16-.14-.25-.18-.25a4.56,4.56,0,0,0-.55,0l.15-.9-.64-.06-.36-.87-.23.05L50,144.52l-.26,0c.12-.73.27-1.45.34-2.17,0-.3,0-.78-.22-.89a3.76,3.76,0,0,0-1.51-.43c-.1,0-.31.68-.36,1.06C47.94,142.75,48,143.46,47.91,144.31Z"/>
          <path class="cls-3" d="M90.44,185.35a2.23,2.23,0,0,1,.7.12,2.8,2.8,0,0,1,.56.53c.17-.13.42-.46.65-.45a15.6,15.6,0,0,1,3.06.36,2.55,2.55,0,0,0,2-.51c.52-.29.78-.32,1.16.18.19.25.63.32,1.07.42-.66-1.26,1-1.17,1.06-1.88-1.76.26-3.46.59-5.17.73-1.32.1-2.65-.06-4-.07a5.88,5.88,0,0,0-1.08.21Z"/>
          <path class="cls-3" d="M79.63,143.27l-1.38-1c0,1.67,1.76,1.79,2.31,2.85l.18-.78.45.39.81-.86-.88,2.5c1.29,0,2.16-2.19,1.41-3-.42-.46-.79-1-1.15-1.4-.31.21-.59.37-.84.57S80,143,79.63,143.27Z"/>
          <path class="cls-3" d="M7.4,71l0,1.29.88,0c-.17,1.67,1.09,2.06,2.3,2.54,1.22-.72,1.31-1.16.4-2.33l-.78.36-.55-1.47Z"/>
          <path class="cls-3" d="M11.08,124.89c.42.35.84.54,1,.86.43.93,1,.47,1.43.14a6,6,0,0,0,1-1.07c.41-.52,0-1.41-1-2-.56-.34-.94-.3-1.26.39A11,11,0,0,1,11.08,124.89Z"/>
          <path class="cls-3" d="M17,105.91l-.63.75,1,1L18,109.4l1.76-.78-.75-.9.68-.57c-.88-.48.61-1.68-.79-2.14l-.94,1.65Z"/>
          <path class="cls-3" d="M39.68,150.19c-.59-.46-.69-1.64-1.8-1.17-.43.18-1.23.14-1,1.06.16.74-.43,1.84.7,2.08C39,152.46,39.07,151,39.68,150.19Z"/>
          <path class="cls-3" d="M59.11,133.46c.08.55.93,1.13-.31,1.52a9.26,9.26,0,0,1,1.52,1,10.73,10.73,0,0,1,.69,1.2,10.24,10.24,0,0,0,.9.95l.52-1.24-.36-.45-.43.51-.27-.08.35-2.07C60.92,134.72,60.77,132.77,59.11,133.46Z"/>
          <path class="cls-3" d="M30.33,84.17c-.91-.06-1.49-.08-2.06-.14-1.25-.12-2,.62-1.51,1.62a1.17,1.17,0,0,0,.9.52A2.8,2.8,0,0,0,29.44,86C29.91,85.58,30.05,84.8,30.33,84.17Z"/>
          <path class="cls-3" d="M50.46,166.94c-.46-.13-1,.49-.89,1.1l1.08-.9.3,1.32c.79-.81,2.34-.89,2.1-2.49a9.34,9.34,0,0,0-.32-1.19A19.49,19.49,0,0,0,50.9,166C50.68,166.16,50.63,166.55,50.46,166.94Z"/>
          <path class="cls-3" d="M33.88,73.4l-1.75-2.21.18-.22.84.5v-.72l-2.48-.68c.37,1.09.75,2.26,1.17,3.41.08.22.34.52.52.53s.78.43.77-.32C33.12,73.6,33.56,73.52,33.88,73.4Z"/>
          <path class="cls-3" d="M9.47,92.78c.31.82.48,1.76.7,1.77a6.35,6.35,0,0,0,2.43-.42c.41-.15,0-1.66-.63-1.82A7.45,7.45,0,0,0,9.47,92.78Z"/>
          <path class="cls-3" d="M77.53,188.51c-.41-.58-1.44-.81-.7-1.73-1.29-.28-1.88,0-2.29,1.33-.21.68-.29,1.46.31,1.66Z"/>
          <path class="cls-3" d="M42.65,81.45c.05,0,.1,0,.11,0a4.29,4.29,0,0,1,.93-.84c.42-.2,1.06-.07,1.34-.34s.34-.91.49-1.38a4,4,0,0,0-1.18-.25C42.67,78.84,42.64,78.92,42.65,81.45Z"/>
          <path class="cls-3" d="M66.53,140.78c-.62,2-.15,2.73,2.07,3.12C69.3,142.68,68.19,141,66.53,140.78Z"/>
          <path class="cls-3" d="M54.26,157.91l-.07,1.28c1.16.25,2.43-.47,3.56.61l.61-1.26a9.21,9.21,0,0,0-1.87-.69A12.26,12.26,0,0,0,54.26,157.91Z"/>
          <path class="cls-3" d="M67.57,161.07a5.25,5.25,0,0,0,1.59.35,1.23,1.23,0,0,0,.85-.85c0-.93,0-1.91-1.2-2.23-.11,0-.19-.18-.23-.22C68.25,159.09,67.91,160.09,67.57,161.07Z"/>
          <path class="cls-3" d="M81.25,167a2.43,2.43,0,0,0,2,1.48c.59.15,1.06-.17.84-.73a1.73,1.73,0,0,1,.56-2.36Z"/>
          <path class="cls-3" d="M20.3,158.12c.35-.65.88-1.1.51-1.91a1.29,1.29,0,0,1,.11-.89c.18-.45.44-.87.67-1.31-.75-.5-1.38-.47-1.75.17s-.46,1.18.47,1.5C19.54,156.41,19.59,157.19,20.3,158.12Z"/>
          <path class="cls-3" d="M66.75,127.21c.33-.58,1-1.18.91-1.72s-.72-1-1.59-.91a6.74,6.74,0,0,1-1.9-.31v0c.19.28.37.56.59.87l-.42.33L65,126l.4-.69,1.51.76C66.88,126.46,66.81,126.83,66.75,127.21Z"/>
          <path class="cls-3" d="M16.38,135.18a2.27,2.27,0,0,0,1.36,2.07c.58.24,1,.09,1-.52s.05-1.3.07-1.83Z"/>
          <path class="cls-3" d="M20.85,140.11A10,10,0,0,0,22,141.92c.63.64,1.26.35,1.82-.62-.31-.31-.73-.55-.86-.9-.26-.68-.56-.81-1.18-.44A2.74,2.74,0,0,1,20.85,140.11Z"/>
          <path class="cls-3" d="M58.53,144.29c-.23-.55-.33-1.06-1.09-1.1-.25,0-.41-.71-1-.81s-.66-.15-.43.69l.13-.69c.65,1-.64,1.37-.46,2.34l1.11-.58C57.1,145.52,57.87,144.34,58.53,144.29Z"/>
          <path class="cls-3" d="M58.87,166.62l2.64-.9c.12-.5-.4-1-1-1.3-.24-.13-.83-.13-.88,0A20.29,20.29,0,0,0,58.87,166.62Z"/>
          <path class="cls-3" d="M45.6,86c-.67.78-.94,1.45-.36,1.92.28.23,1,.07,1.46-.15s.13-1.39-.44-1.74C46.05,85.87,45.69,86,45.6,86Z"/>
          <path class="cls-3" d="M74.08,129.08a6.27,6.27,0,0,0-.9-.23c-.39,0-.8,0-1.2,0a10.46,10.46,0,0,0,.18,1.49c.07.26.35.46.7.88Z"/>
          <path class="cls-3" d="M46.49,96.36l2.07,1.73.43-.25c-.16-.59-.15-1.39-.54-1.7S47.28,96,46.66,96Z"/>
          <path class="cls-3" d="M89.65,153.08c-.62-.2-1.32-.68-1.67-.49s-.52,1-.77,1.6l2.06,0Z"/>
          <path class="cls-3" d="M76.67,147.08c-.14,1.31.25,2.06,1.86,2.93-.09-.32-.2-.63-.27-.95s-.1-.7-.13-.91Z"/>
          <path class="cls-3" d="M70.09,154.84c-.14-.18-.23-.44-.4-.5a10.16,10.16,0,0,0-2-.55c-.24,0-.53.32-.79.49.2.2.37.52.59.57a20.47,20.47,0,0,0,2.21.25C69.78,155.11,69.87,155,70.09,154.84Z"/>
          <path class="cls-3" d="M86.43,183.09c.67.68.7,2,2,2,.2,0,.41-.26.62-.4l-2.37-2Z"/>
          <path class="cls-3" d="M46.68,76.6c-.26.11-.26.11,1.86,1.57l.82-1.23Z"/>
          <path class="cls-3" d="M26,146.07c.85-.58,2.17-.48,1.52-1.92l-1.11.19.62-1.06C25.31,143.92,26.23,145,26,146.07Z"/>
          <path class="cls-3" d="M36.89,160.4a9.25,9.25,0,0,0,.21.93c.08.3.2.58.31.88.2-.12.55-.22.56-.35a5.14,5.14,0,0,0-.17-1.18l1.36-.06A1.52,1.52,0,0,0,36.89,160.4Z"/>
          <path class="cls-3" d="M15.7,83.43a2.46,2.46,0,0,0,0,.72c.08.2.37.52.43.49.27-.12.7-.37.69-.54-.06-.76,1.08-1.37.27-2.18a.48.48,0,0,0-.43-.08.46.46,0,0,0-.09.41C17.16,83.23,16.36,83.23,15.7,83.43Z"/>
          <path class="cls-3" d="M9.41,104.47c1-1.15,1-1.68.21-2.24a.88.88,0,0,0-.7.18c-.06.57-.8,1.38.42,1.64C9.38,104.06,9.38,104.29,9.41,104.47Z"/>
          <path class="cls-3" d="M27.6,76.92c-1.3,1.06.2,1.47.27,2.13l1.52,0Z"/>
          <path class="cls-3" d="M49.42,133.74l.81.68,1-1.14c.17-.74-.71-.92-1-.85s-.68.72-1,1.11Z"/>
          <path class="cls-3" d="M42.46,150.53c1-.5,1.15-1.17.32-2l-.34.84-1.06-.54-.88,1.05.24.22.82-.7,1,.35Z"/>
          <path class="cls-3" d="M75.72,173.5l-.42,1c1.7-.13.84,1.55,1.45,2.25C77.55,175.52,77.37,174.94,75.72,173.5Z"/>
          <path class="cls-3" d="M49.26,152.72l.18-.73L48,153c.71,1.22,1.44,1,2.3-.84Z"/>
          <path class="cls-3" d="M6.64,137c-.66,1.16-.6,1.29.35,1.5.17,0,.31.28.59.54a5.11,5.11,0,0,0,.57-.92A12,12,0,0,0,6.64,137Z"/>
          <path class="cls-3" d="M15.6,102.6a4.82,4.82,0,0,0,.21-1.42c0-.22-.58-.58-.7-.51a5.15,5.15,0,0,0-1,.89Z"/>
          <path class="cls-3" d="M7.57,124.94c1.43.17,2.18-1,1.72-2.67Z"/>
          <path class="cls-3" d="M71,120.18a10.91,10.91,0,0,0-1.31.8,1.71,1.71,0,0,0-.46.77c0,.07.21.34.29.32.34-.06.78-.1,1-.33a6.9,6.9,0,0,0,.71-1.38Z"/>
          <path class="cls-3" d="M73.14,139.33a7.13,7.13,0,0,0-.76-.78,5.06,5.06,0,0,0-1-.52c-.07,0-.34.26-.32.28.18.28.4.54.59.81C72.06,139.72,72.54,140,73.14,139.33Z"/>
          <path class="cls-3" d="M77.75,173.18l-2.43-3.52-.27.17c.72,1.15,1.43,2.3,2.18,3.42C77.28,173.33,77.65,173.2,77.75,173.18Z"/>
          <path class="cls-3" d="M79.88,165.78c-.27,1.19-.82,1.05-1.19.69l-.93.15c.13.87,1,1,2.62.26C80.24,166.56,80.09,166.24,79.88,165.78Z"/>
          <path class="cls-3" d="M82.73,137.67c-.42-.48-1.18-.49-2.33.1l.88.94Z"/>
          <path class="cls-3" d="M16.07,123.5c0-.12,0-.57-.17-.64-.73-.3-1.21-1.37-2.56-.73Z"/>
          <path class="cls-3" d="M27.8,91.54a11.5,11.5,0,0,0-1.21-.62c-.07,0-.42.34-.39.45.11.35.26.86.52.95s.7-.21,1.06-.34Z"/>
          <path class="cls-3" d="M18.35,149.85l-1-.36-.12.15.74.62-.59.88,1.62.28Z"/>
          <path class="cls-3" d="M34,139.78l-.38.58c-.11,0-.21-.05-.29-.09a5.58,5.58,0,0,0-.67-.28s-.14.25-.22.38l.69.33c.36.17.72.32,1.23.54a1.55,1.55,0,0,0,.1-.65A3.1,3.1,0,0,0,34,139.78Z"/>
          <path class="cls-3" d="M7.93,122l.68-1.24-1-.56C7,120.93,7.17,121.63,7.93,122Z"/>
          <path class="cls-3" d="M19.94,164.29c0,.67-.06,1.14,0,1.61a.81.81,0,0,0,.5.14c.27-.39.48-.81.75-1.28Z"/>
          <path class="cls-3" d="M52.6,140.89l-1-.27-.1.32a3.59,3.59,0,0,0,1.08.25c.14,0,.39-.49.36-.72-.09-.57-.17-1.25-1.13-1.17Z"/>
          <path class="cls-3" d="M83.83,137.9c-.45.7-.88,1.35-1.28,2,0,.05.11.21.17.31C84.06,139.6,84.28,139.14,83.83,137.9Z"/>
          <path class="cls-3" d="M59.56,117.15c-.61,2.21-.48,2.71.82,2.39-1-.19-1.07-.59-.6-1.26.19-.27.09-.75.13-1.13Z"/>
          <path class="cls-3" d="M13.49,130.88l-1-1.09-1.46.87,2.34.38Z"/>
          <path class="cls-3" d="M50.11,73.93l-.43-1.13-1.18-.12C48.51,73.6,48.86,73.87,50.11,73.93Z"/>
          <path class="cls-3" d="M36.31,138c.71.62,2,.57,1.89,2C38.44,138.22,38.1,137.92,36.31,138Z"/>
          <path class="cls-3" d="M89.28,158.05a13.65,13.65,0,0,0-1.15-.74.7.7,0,0,0-.53,0,.47.47,0,0,0-.13.42A1.17,1.17,0,0,0,89.28,158.05Z"/>
          <path class="cls-3" d="M8.52,90.42a5,5,0,0,0-1.07-.62c-.13,0-.44.25-.57.45a.63.63,0,0,0,0,.55c0,.08.32,0,.48,0,.32,0,.64-.07.95-.11Z"/>
          <path class="cls-3" d="M49.69,138.66c-.2-.47-.37-1-.6-1.44a.58.58,0,0,0-.42-.31c-.13,0-.31.24-.34.39C48.19,138,48.92,138.66,49.69,138.66Z"/>
          <path class="cls-3" d="M45.16,148.72a2.34,2.34,0,0,0,.49-3l0,1.81C44.68,148.16,44.65,148.24,45.16,148.72Z"/>
          <path class="cls-3" d="M90,178.51l1.59-1-.66-.63-1.27,1.22Z"/>
          <path class="cls-3" d="M10.65,84l-.06-1.34-1.4.51v.26Z"/>
          <path class="cls-3" d="M70.52,118.29l-1.27-.78.13-.26-1,.34C68.86,118.51,69.61,118.55,70.52,118.29Z"/>
          <path class="cls-3" d="M40.65,153.73l-.33,1.72.36.07c.51-.49.87-1,.36-1.71Z"/>
          <path class="cls-3" d="M9.61,89.93c.87-.22,1.13-.63.49-1.43l-.94.38Z"/>
          <path class="cls-3" d="M34.71,75.36l-1.18-.47-.27.69,1.23.4Z"/>
          <path class="cls-3" d="M23.16,161.4l-1.61-1.34C21.79,161,21.94,161.75,23.16,161.4Z"/>
          <path class="cls-3" d="M70,137.66l1.08.05c-.09-.27-.1-.66-.29-.79s-.62-.12-.94-.16Z"/>
          <path class="cls-3" d="M10,77.34c0,.22,0,.38,0,.54s0,.24-.09.66l1.66-.79-.09-.32Z"/>
          <path class="cls-3" d="M50,70.46a2,2,0,0,0-2,1.1l2.2-.63Z"/>
          <path class="cls-3" d="M19.26,129.18l-.78.93.9.44.36-1.15Z"/>
          <path class="cls-3" d="M36.11,153.67l0,.82-.86-.07.56,1,1-.61-.54-1.11Z"/>
          <path class="cls-3" d="M93.94,154.29l-.5-1.13-.7.35.7,1.05Z"/>
          <path class="cls-3" d="M20.74,163.7l-.35-.68.62-.53c-.05-.09-.08-.18-.09-.18-.4.05-.79.12-1.18.18l.71,1.37Z"/>
          <path class="cls-3" d="M18.39,72.91c.4,0,.76,0,.93-.15s.05-.72,0-.73a4.17,4.17,0,0,0-1.06,0Z"/>
          <path class="cls-3" d="M29.26,101.19,28,100.9c0,.25,0,.69.13.73a3.75,3.75,0,0,0,1.07.09Z"/>
          <path class="cls-3" d="M62.29,113.72l-.56-1.84s-.34.13-.33.18a12.23,12.23,0,0,0,.48,1.7S62.26,113.72,62.29,113.72Z"/>
          <path class="cls-3" d="M91.22,175.54l1.51.43-.81-1.8Z"/>
          <path class="cls-3" d="M81.14,136.71l1.2-.62c-.1-.16-.21-.46-.32-.46C81.47,135.63,80.88,135.67,81.14,136.71Z"/>
          <path class="cls-3" d="M77.78,330.58,77,328.93c-.36.19-.36.21.22,1.42l-.7-.07c.08.14.13.35.2.36C77.07,330.64,77.47,330.6,77.78,330.58Z"/>
          <path class="cls-3" d="M14.81,137.17l-1.14-1.93C13.34,136.29,14,136.81,14.81,137.17Z"/>
          <path class="cls-3" d="M31.92,152.26l-2,.62,1.14.68Z"/>
          <path class="cls-3" d="M25.06,158.93l.23,1.77.4,0c.49-.66-.23-1.17-.2-1.78Z"/>
          <path class="cls-3" d="M86.39,129.67l.62.81.95-.8-.58-.79c-.29.23.15,1.44-.79.59Z"/>
          <path class="cls-3" d="M54.3,128.91l-1.1.22.47.8.81-.53Z"/>
          <path class="cls-3" d="M76.81,185.09l-.35-1.26-.81.62.85.89Z"/>
          <path class="cls-3" d="M65.17,150.16l1.72-.48-1.09-.92Z"/>
          <path class="cls-3" d="M16.6,143.89a5.61,5.61,0,0,0,.64-.1,4.07,4.07,0,0,0-.12-1.11c0-.07-.45,0-.69,0Z"/>
          <path class="cls-3" d="M51.58,158c.33-.3.67-.58,1-.91,0,0-.2-.32-.31-.49-.15.1-.34.16-.43.29a8.52,8.52,0,0,0-.46.84Z"/>
          <path class="cls-3" d="M76.06,114.47l-1.25.53,1.32,1Z"/>
          <path class="cls-3" d="M31.08,95.47,30,96.8C31,97.1,31.17,97,31.08,95.47Z"/>
          <path class="cls-3" d="M35.2,138l-1.79-.14C34,139.05,34.52,138.84,35.2,138Z"/>
          <path class="cls-3" d="M95.6,138.26l1.34,1,.21-.11a4,4,0,0,0-.67-1c-.2-.17-.6-.11-.92-.15Z"/>
          <path class="cls-3" d="M6.26,126.12l1.17-.87C6.41,124.81,6,125,6.26,126.12Z"/>
          <path class="cls-3" d="M89.52,132.29l-.59,2C89.87,133.82,90.07,133.07,89.52,132.29Z"/>
          <path class="cls-3" d="M46.3,101.9l.62-1.7-1.2.69.27.91Z"/>
        </g>
      </g>
    </g>
  </g>
</svg>
