<svg id="Layer_1" data-name="Layer 1" xmlns="http://www.w3.org/2000/svg" xmlns:xlink="http://www.w3.org/1999/xlink" viewBox="0 0 374.62 397.13">
  <defs>
    <style>
      .cls-1 {
        fill: none;
      }

      .cls-2 {
        fill: #2c3b38;
      }

      .cls-3 {
        fill: #ed4c39;
      }

      .cls-4 {
        clip-path: url(#clip-path);
      }
    </style>
    <clipPath id="clip-path">
      <polygon class="cls-1" points="23.75 217.36 37.94 204.16 30.13 189 0.52 187.61 1.31 273.3 53.28 251.87 64.11 373.86 86.72 364.53 65.8 237.15 10.51 259.95 5.98 196.38 25.7 193.03 27.57 208.07 18.12 211.73 23.75 217.36"/>
    </clipPath>
  </defs>
  <title>Tentacle1</title>
  <g>
    <g>
      <polygon class="cls-2" points="64.11 373.86 53.28 251.87 1.31 273.3 0.52 187.61 30.13 189 37.94 204.16 23.75 217.36 13.86 207.47 24.21 203.94 22.81 196.53 9.36 200.14 14.53 252.78 70.12 226.54 97.85 359.94 64.11 373.86"/>
      <polygon class="cls-3" points="97.85 359.94 86.72 364.53 65.8 237.15 10.51 259.95 5.98 196.38 25.7 193.03 27.56 208.07 18.12 211.73 13.86 207.47 24.21 203.94 22.81 196.53 9.36 200.14 14.53 252.78 70.12 226.54 97.85 359.94"/>
    </g>
    <g class="cls-4">
      <g id="_2s2bg4" data-name="2s2bg4">
        <g>
          <path class="cls-3" d="M57.81,282.56l0,.36c.42.37.73.52.83.77a2.51,2.51,0,0,0,1.74,1.59c1.1.31,2.19.68,3.29,1,.15-.89.15-.89-1.24-1.77l.72-.55-.73-1-.2.12a2.13,2.13,0,0,1,.23.45c0,.16.1.44,0,.5a1.24,1.24,0,0,1-.67.24c-.1,0-.28-.26-.3-.41,0-.5,0-1,0-1.57-1-.88-1.2-.88-2.24.25-.54.58-1,.21-1.49,0Z"/>
          <path class="cls-3" d="M59.4,247.6c-.34-.15-.7-.41-.78-.34-.47.39-1.25.89-1.21,1.28a13.32,13.32,0,0,1-.14,1.83c0,.14.68.44,1,.38a9.26,9.26,0,0,0,2.41-.76.82.82,0,0,0,.26-1.38l.52-1.3H59.59Z"/>
          <path class="cls-3" d="M35.23,254.22c.49-.4,1.21-.68.84-1.53,0-.07-.21-.08-.32-.12.47-.31.47-.31,1.85.78.1-2.42.1-2.42,1.07-3.21l1.22.7-1.12-1.53c-.63.17-1.83,0-1.34,1.67-1.23-.1-2.28-1.1-3.63-.15l1.42.1.06.14-1.77.56c.7.61,1.78,1,1.05,2.29l.67.3Z"/>
          <path class="cls-3" d="M20.81,217.15,22,217a6,6,0,0,1-.25-1.28,4.93,4.93,0,0,1,.29-1.16h.28l-1.19-1.63-.57.32c-.33-.85-.39-.85-1.35.18l.68.44-.28-.14L19.23,215c-.08-.18-.2-.46-.35-.73a1.81,1.81,0,0,0-.59-.64c.19.57.37,1.14.58,1.7a1.08,1.08,0,0,0,.3.46C19.68,216.2,20.2,216.63,20.81,217.15Z"/>
          <path class="cls-3" d="M66.07,277.08c.17-.49-.28-1.35.93-1.14a8.66,8.66,0,0,1-.82-1.53,9.24,9.24,0,0,1-.05-1.3,8.27,8.27,0,0,0-.34-1.19l-1,.81.09.53.59-.24.19.19-1.19,1.58C65.11,275.24,64.38,276.94,66.07,277.08Z"/>
          <path class="cls-3" d="M11.78,212.32l-.82.48c-.26-.18-.61-.54-.72-.48a4.08,4.08,0,0,0-.77.85l-.55-.33c.19.68.39,1.49.65,2.27a6.37,6.37,0,0,0,.56,1c.16-.1.33-.19.49-.3s.3-.22.56-.42l-.6-.5c-.25-.88.35-1.33,1.32-1.58Z"/>
          <path class="cls-3" d="M63.07,267.71c1.41-1.42,1.32-2.22-.37-3.52C61.58,264.91,61.78,266.79,63.07,267.71Z"/>
          <path class="cls-3" d="M71.08,250.27a4.88,4.88,0,0,0-1.17-1,1.19,1.19,0,0,0-1.09.34c-.45.76-.83,1.61,0,2.4.08.07.08.23.1.28Z"/>
          <path class="cls-3" d="M35.23,254.22c-.7.21-1.2.07-1.25-.79a1.41,1.41,0,0,0-.2.14c-.66.91-.92.88-1.51-.1a4.08,4.08,0,0,0-.66-.65c-.52,1.11-.52,1.11-.15,1.3-.09.4-.34.84-.21,1.11.21.46.61.34,1,.05.16-.12.55.07,1,.14l0-.72,1.94-.48Z"/>
          <path class="cls-3" d="M.49,227.55l1.58.59-.11-.7,1-.23c-.33-.62-.58-1.55-.89-1.57C.66,225.55.56,225.77.49,227.55Z"/>
          <path class="cls-3" d="M27.75,204.43a9.33,9.33,0,0,0,.49-1.5,3.38,3.38,0,0,0-.16-1c-.39.21-1.1-.73-1.28.41-.07.44-.5.83-.76,1.25l1.38.71Z"/>
          <path class="cls-3" d="M31.66,191a2.33,2.33,0,0,0,.52,3.13c.27.18.76,0,1.16,0-.1-.32-.18-.65-.3-1,0-.12-.22-.2-.27-.32A3.25,3.25,0,0,0,31.66,191Z"/>
          <path class="cls-3" d="M56.94,279c-.53.34-1.31.57-1.51,1s.14,1.18.92,1.46a6.24,6.24,0,0,1,1.46,1.09v0c0-.31-.07-.63-.11-1l.49-.09-.32-.79-.64.4c-.34-.47-.64-.88-.93-1.3Z"/>
          <path class="cls-3" d="M2.15,214.42l1.9-1.55c-.3-.32-.55-.74-.92-.92-.22-.11-.63.15-1,.27l-.26-.49-.21,0Z"/>
          <path class="cls-3" d="M-1.8,258.09l1.06,1.82a15.92,15.92,0,0,0,.94-1.79c.26-.66-.23-.88-.75-1.15s-.73,0-.92.42Z"/>
          <path class="cls-3" d="M71.3,268.27c0,.57-.19,1,.43,1.4.21.12,0,.78.46,1.1s.49.42.66-.38l-.41.52c-.12-1.11,1.14-.87,1.41-1.76H72.66C73,267.87,71.87,268.52,71.3,268.27Z"/>
          <path class="cls-3" d="M8.25,204.73l-.45-.59,1.09-.72-2.67-.69-.29-.54-.66.67c.07.31,1.16-.05.56.8a.63.63,0,0,0,.94.49c.48-.26,1-.46.8.48,0,.06.37.2.56.3Z"/>
          <path class="cls-3" d="M33.15,244.68l.28-1-1-.2,1.24-1.36a1,1,0,0,0-1.82.36,2.13,2.13,0,0,0,.14,1.41C32.14,244.26,32.66,244.4,33.15,244.68Z"/>
          <path class="cls-3" d="M15.08,250.78l.75-.7c0,.41.07.78,0,.82-.5.24-.49.62-.13.85a1.7,1.7,0,0,0,1.1.09,1.47,1.47,0,0,0,.85-.63,1.94,1.94,0,0,1-.75.29,1.06,1.06,0,0,1-.73-.51H17l-1.53-2.41-.39.08C16.38,249.46,14.92,250,15.08,250.78Z"/>
          <path class="cls-3" d="M13.44,199l-.88,1.07.87.77-.91,0c.73.43,1.82.33,2-.1C15.12,199.52,13.8,199.66,13.44,199Z"/>
          <path class="cls-3" d="M22.22,255a3.54,3.54,0,0,0,0-1.18,4.67,4.67,0,0,0-.74-1.15c-.24.23-.58.41-.71.69-.3.64.16,1,.65,1.27C21.67,254.8,21.93,254.9,22.22,255Z"/>
          <path class="cls-3" d="M33.6,247a6.5,6.5,0,0,0-.83-1.37c-.14-.16-.64-.09-.93,0a.75.75,0,0,0-.4.58.79.79,0,0,0,.38.62,11.17,11.17,0,0,0,1.54.38Z"/>
          <path class="cls-3" d="M49.11,247.29c.43.44.81,1.14,1.18,1.14s.87-.62,1.34-1l-1.73-.88Z"/>
          <path class="cls-3" d="M57.35,258c.69-1,.69-1.83-.28-3.26-.06.31-.11.61-.19.91s-.23.63-.3.82Z"/>
          <path class="cls-3" d="M66.25,254.38c0,.22,0,.47.11.6a10.58,10.58,0,0,0,1.43,1.33c.18.13.58,0,.87-.07-.07-.25-.07-.59-.24-.73a20.45,20.45,0,0,0-1.74-1.18C66.62,254.29,66.51,254.35,66.25,254.38Z"/>
          <path class="cls-3" d="M12,259.9l0-1L10.65,258c-.05.49-.12.94-.14,1.39s.44.81,1,.59A1.89,1.89,0,0,1,12,259.9Z"/>
          <path class="cls-3" d="M33.81,186.6l-1.81.1-.18.25L33,188.18l1-1.29Z"/>
          <path class="cls-3" d="M14.91,260a4.5,4.5,0,0,0,.7.57c.16.08.5.11.57,0,.48-.61.9-1.26,1.36-1.92l-.58-.47-.73,1.36Z"/>
          <path class="cls-3" d="M74.31,281.09l-.38-.92-1.3.54c-.47.54.19,1.08.49,1.17s.89-.31,1.34-.49Z"/>
          <path class="cls-3" d="M32.12,208.29c-.41.48-.85,1-1.22,1.46-.06.08.16.36.26.55a4,4,0,0,0,1.18-.68c.22-.26.17-.75.24-1.13Z"/>
          <path class="cls-3" d="M69.71,236.3l.8-.67c-1.48-.64,0-1.66-.23-2.52C69.06,233.8,69,234.37,69.71,236.3Z"/>
          <path class="cls-3" d="M18.48,257.26l.59-1.82c-.62.1-1.3,0-1.49.28C17,256.57,17.91,256.74,18.48,257.26Z"/>
          <path class="cls-3" d="M26.14,194.4c-.56.59-.71,1.2-.17,1.78a.74.74,0,0,0,.71,0C27.05,195.74,26.72,194.71,26.14,194.4Z"/>
          <path class="cls-3" d="M76.06,294.84c-1.06-.54-1.66.22-2.41.58C74.67,296.08,75.17,296,76.06,294.84Z"/>
          <path class="cls-3" d="M3.22,269.77l-2.17-1.3C1.15,270,1.89,270.44,3.22,269.77Z"/>
          <path class="cls-3" d="M56.9,266a6,6,0,0,0,.3,1,4.67,4.67,0,0,0,.64.89c0,.05.39-.07.39-.09,0-.31-.1-.62-.15-.94C58,266.17,57.71,265.7,56.9,266Z"/>
          <path class="cls-3" d="M67.87,235.67l.49,4,.3,0c-.1-1.27-.19-2.54-.33-3.81C68.32,235.76,68,235.71,67.87,235.67Z"/>
          <path class="cls-3" d="M62.85,240.94c.74-.88,1.14-.52,1.29-.06l.85.29c.27-.79-.43-1.28-2.08-1.37C62.89,240.13,62.87,240.46,62.85,240.94Z"/>
          <path class="cls-3" d="M19.7,245.34c-.9-1.1-1.44.63-2.19-.21l-.06.35.8.76Z"/>
          <path class="cls-3" d="M38.24,242.55l.83.06-.2,1.34.6.14.37-1.52C39.21,242,38.59,242,38.24,242.55Z"/>
          <path class="cls-3" d="M74.78,273.72l.71.66.23-.22a3.18,3.18,0,0,0-.8-.68c-.12-.05-.54.24-.61.45-.18.51-.41,1.11.43,1.47Z"/>
          <path class="cls-3" d="M58.55,290.54c1.47-1.58,1.59-2.06.36-2.36.78.6.64,1,0,1.31-.28.15-.41.59-.61.89Z"/>
          <path class="cls-3" d="M12.21,255.15l1,0c.17-1.42.11-1.51-1-1.39a3.46,3.46,0,0,1,.22.74A2.52,2.52,0,0,1,12.21,255.15Z"/>
          <path class="cls-3" d="M6.05,266.65l-1.33.07,0,.24,2.31-.42.16-.67L6,265.61Z"/>
          <path class="cls-3" d="M51.59,243.29a12.4,12.4,0,0,0,.64,1.12.64.64,0,0,0,.46.21c.1,0,.27-.18.29-.29C53.09,243.74,52.34,243.13,51.59,243.29Z"/>
          <path class="cls-3" d="M37.58,213.54a3.27,3.27,0,0,0-.7,0,4.9,4.9,0,0,0-.81.29l.32.79a3.76,3.76,0,0,0,.82-.43,2.27,2.27,0,0,0,.37-.67Z"/>
          <path class="cls-3" d="M76.24,276.86c0,.48-.12,1-.14,1.46a.56.56,0,0,0,.22.45.53.53,0,0,0,.46-.18A1.24,1.24,0,0,0,76.24,276.86Z"/>
          <path class="cls-3" d="M5.05,226.81c-.65-.51-1.21-.49-1.72.44C4,227.07,4.79,228.25,5.05,226.81Z"/>
          <path class="cls-3" d="M32.17,203.13l-1,2,.42.2c1-.35.22-1.54.9-2.05Z"/>
          <path class="cls-3" d="M8.21,271.27c.43-.78.08-1.41-.64-2l.27,2.06Z"/>
          <path class="cls-3" d="M11.08,253l1.4-.14-.75-1.27Z"/>
          <path class="cls-3" d="M26.48,211.81l-1.72.59,1.42.89Z"/>
          <path class="cls-3" d="M58.82,268.81l-.88-.51c0,.27-.21.59-.11.79s.47.36.72.54Z"/>
          <path class="cls-3" d="M46.05,244.39,46,245.56h.74l-.13-1.18Z"/>
          <path class="cls-3" d="M4.62,207.12l.76,1c.14-.21.46-.51.41-.6a4.43,4.43,0,0,0-.74-.76Z"/>
          <path class="cls-3" d="M15.81,264.52l.8-.24-.41-1C15.32,263.55,15.3,263.61,15.81,264.52Z"/>
          <path class="cls-3" d="M54.76,292.21,54.43,294s.34,0,.35,0a11.09,11.09,0,0,0,.34-1.64S54.79,292.22,54.76,292.21Z"/>
          <path class="cls-3" d="M28.3,196.53c.22.6.1,1.49.86,1.73l.38-.3Z"/>
          <path class="cls-3" d="M24.45,251.65a7.94,7.94,0,0,0,1.44.21c.16,0,.31-.39.47-.59l-.22-.23-1.79.41Z"/>
          <path class="cls-3" d="M29.89,251.29,29.05,250l-.7,1.13Z"/>
          <path class="cls-3" d="M68.11,283l1,.3,0-.88-.91.09Z"/>
          <path class="cls-3" d="M73.87,226.12l-.26,1.21,1-.16-.32-1.12Z"/>
          <path class="cls-3" d="M68.31,260.45l-1.64-.35.51,1.25Z"/>
          <path class="cls-3" d="M37.63,257.09l-.7-1.4h-.22a3.91,3.91,0,0,0,.11,1.15c.09.23.46.35.7.52Z"/>
        </g>
      </g>
    </g>
  </g>
</svg>
