<svg id="Layer_1" data-name="Layer 1" xmlns="http://www.w3.org/2000/svg" xmlns:xlink="http://www.w3.org/1999/xlink" viewBox="0 0 374.62 397.13">
  <defs>
    <style>
      .cls-1, .cls-2 {
        fill: none;
      }

      .cls-2, .cls-6 {
        clip-path: url(#clip-path);
      }

      .cls-3 {
        fill: #2c3b38;
      }

      .cls-4 {
        fill: #ed4c39;
      }

      .cls-5 {
        clip-path: url(#clip-path-2);
      }
    </style>
    <clipPath id="clip-path">
      <polygon class="cls-1" points="328 -250.38 356.99 -248.48 374.39 -224.09 355.96 -142.9 296.27 -161.08 299.62 -48.81 257.54 -93.88 283.41 -188.06 346.9 -156.61 368.28 -216.85 340.58 -239 333.75 -215.71 328.99 -216.5 328 -250.38"/>
    </clipPath>
    <clipPath id="clip-path-2">
      <polygon class="cls-1" points="139 102.7 84.03 98.47 95.19 15.04 122.14 0 149.48 17.96 138.31 49.45 116.01 39.68 128.24 40.67 134.7 23.09 102.78 20.03 106.23 83.22 151.87 91.27 130.44 288.22 147 297.94 158.57 372.65 142.03 375.22 134.52 314.51 108.64 309.08 139 102.7"/>
    </clipPath>
  </defs>
  <title>Tentacle3</title>
  <g>
    <g>
      <polygon class="cls-3" points="175.24 370.07 167.16 284.42 147.07 276.67 161.9 79.8 115.98 76.05 110.75 30.1 126.43 27.67 122.64 36.76 116.01 39.68 138.3 49.45 149.48 17.96 122.14 0 95.19 15.04 84.03 98.47 139 102.71 108.64 309.08 134.52 314.51 142.03 375.22 175.24 370.07"/>
      <polygon class="cls-4" points="175.24 370.07 167.16 284.42 147.07 276.67 161.9 79.8 115.98 76.05 110.75 30.1 126.43 27.67 122.64 36.76 116.01 39.68 128.24 40.67 134.7 23.09 102.78 20.03 106.23 83.23 151.87 91.27 130.44 288.22 147 297.94 158.57 372.65 175.24 370.07 175.24 370.07"/>
    </g>
    <g class="cls-5">
      <g id="_2s2bg4" data-name="2s2bg4">
        <g>
          <path class="cls-4" d="M120.92,306l1.94.53c.41-.91-.16-4.6-.9-5.07a4.25,4.25,0,0,0-1.64-.29c.23-.24.77-.58.91-1a5.23,5.23,0,0,0-.1-1.79l-.93,1.22.93-2.52.92,1.49c.48-.54.83-1.22,1.36-1.44s1.06.27,1.5.41l1.9-.3.11.56-1.62.41,1.22,2.29a10,10,0,0,1,.84-2c.37-.54,1.07-.84,1.45-1.37.61-.83,1.44-1.78-.31-2.61.47-.2.85-.5,1-.41,1.6.81,2.74.85,2.66-1.7.11,1.36.1,2.33,1.48,2.84.46.18.8,1.65.61,2.38-.26,1-1.17,1.36-2.24.69-.22-.14-.7.13-1,.21l-.77-1.2c-.19.44-.37.88-.57,1.31a11.61,11.61,0,0,1-1.54,3.16,3.36,3.36,0,0,0-.74,2.47,3.28,3.28,0,0,1-4,2.9c-1-.18-1.93-.11-2.46-1.13Z"/>
          <path class="cls-4" d="M122.61,189c-1.09,1.56-2.17,3.12-3.29,4.74a10.19,10.19,0,0,1-1.73-1.15,2.43,2.43,0,0,1-.78-2.69,25.8,25.8,0,0,0,.89-6.07,2.61,2.61,0,0,1,1.53-2.6c1.14-.51,2.36-.83,3.75-1.29-1.06,1.85,0,4.66,1.58,5q-1,2.08-2,4.17c-.23-.86-.46-1.72-.67-2.52l-1.91-.26c.43,1.09,1.1,2.15-.36,3Z"/>
          <path class="cls-4" d="M145.44,187.16c-2.27-1.11-3.25-3.13-2.4-5.38.15-.4,1.12-.49,1.77-.74l-1.56-1.81,1.21-.79,1.11,2.16a6.39,6.39,0,0,1,4.25-1.75c.48.49.79,1.06,1.24,1.22a3.65,3.65,0,0,1,2.28,2,.5.5,0,0,1,0,.38c-.41.92-.83,1.84-1.38,3-1-2.43-2.64-4.14-4.17-6l-.22.5c.08,1.25.5,2.61.15,3.72S146.24,186,145.44,187.16Z"/>
          <path class="cls-4" d="M144,145.51c.38-1.18,1.1-2.54-.64-3.21-.29-.11-.82.39-1.28.63l-1.29-8.34.47-.26.87,1.58c.44-.23,1.14-.85,1.48-.69.51.22.75,1,1.13,1.56s.92,1.15,1.29,1.78.81,1.56,1.21,2.36l.41-.61C148.19,143.23,146.6,144.66,144,145.51Z"/>
          <path class="cls-4" d="M84.52,84.72l-.25-.82a19.56,19.56,0,0,0,1.52-1.69c.08-.1-.25-.5-.37-.7l2-1.24.28.25-1.28,2c.73,1.58,2.73,3,1.73,5.56l-1-.59-1.26,2.31-.6-1.13L81.4,90.34a6.65,6.65,0,0,0,.61-2,3.35,3.35,0,0,0-.76-1.42c-.41-.56-.89-1.07-1.34-1.6a19.67,19.67,0,0,1,3-1c.38-.08.89.48,1.34.75Z"/>
          <path class="cls-4" d="M129,146.91c2.16.07,2.26,0,1.53-1.88,1.64-1.62,4.06-.63,4.77,1.91l1.42.29c-.25.83-.25,1.92-.79,2.42a19.56,19.56,0,0,1-3.46,2.1C130.48,150.81,128.31,150,129,146.91Z"/>
          <path class="cls-4" d="M133.77,320.45c1,.18,1.89.32,2.78.56.2.05.49.48.44.65-.69,2.3-1.09,4.76-3.53,6.1-.92.5-1.43,1.71-2.84.75s-1.75-1.61-.53-2.83a8.57,8.57,0,0,0,2.38-4.07C132.59,321.14,133.31,320.83,133.77,320.45Z"/>
          <path class="cls-4" d="M120.68,282.19c.33-1.65.54-2.76.79-3.85.2-.85,2.32-1.71,3.67-1.49a4.45,4.45,0,0,1,1,.31c.83.35,1.65.73,2.47,1.1-.56.88-1.08,1.78-1.71,2.61a5,5,0,0,1-1.4,1.35c-.67.42-1.24,1.16-2.31.49A7.3,7.3,0,0,0,120.68,282.19Z"/>
          <path class="cls-4" d="M131.57,184.48c-.63.89-1,1.57-1.54,2.15a5.15,5.15,0,0,1-1.74,1.57c-1.72.62-3-.9-2.58-2.82.12-.44.18-.9.34-1.32.31-.84.56-2.24,1-2.34,1-.2,2.44-.67,2.91,1.12C130.14,183.35,130.82,183.72,131.57,184.48Z"/>
          <path class="cls-4" d="M113.75,280.56l-.59-2-1.32,2.15-1-.56c-.09.32-.36.75-.25.94.63,1.06,1.36,2.07,2.09,3.14-1.56,1.05-2.5-.24-3.74-1l1.13-1.14-1.47-.72a4,4,0,0,1,.07-.48c.21-.93.45-1.86.64-2.8.38-1.92,1.24-2.35,3-1.49.21.1.39.24.61.34C115.72,278.12,115.77,278.35,113.75,280.56Z"/>
          <path class="cls-4" d="M158.84,134.18,155.43,133c2.7-1.51,2.74-4.35,2.68-6.9a17.68,17.68,0,0,1,.88-6.64,7.84,7.84,0,0,0,.2-1.57l1.77-.53c-.23,1.4-.46,2.78-.7,4.19l2.13,1.15a20.64,20.64,0,0,0-2.25.11,1.46,1.46,0,0,0-.73.51c.55,1.19-1.23,2.48.18,3.7.21.18-.33,1.23-.59,2.07,1.06,1.33-.85,2.26-1,3.67Z"/>
          <path class="cls-4" d="M154.44,175.22l-.51.21c-.4-.68-.75-1.21-1-1.78a2.92,2.92,0,0,1-.1-1c.31,0,.69-.09.92.06a21.82,21.82,0,0,1,1.78,1.41l.38-.55,1.07,1.69.45-.21.31-1.76c.54,1.48,1.3,2.64,1.31,3.81s-.75,2.3-1.17,3.47l-.79-1.26-1.23,2-.48-.1Z"/>
          <path class="cls-4" d="M164.13,43.35,166,44.52l-.83,1.27c2.63,1.24,2.08,3.47,1.71,5.68-2.16,1.16-2.9.91-3.82-1.48l1.24-.84L162.63,47Z"/>
          <path class="cls-4" d="M120.74,320.12a6.79,6.79,0,0,1-1.8-.77c-1.34-1.14-2.41-.89-3.18.31l-1.88-1,1.08-2,.44.17-.28-1.81,3.45.45-.11,1.33,1.94-1.8.16,3.26Z"/>
          <path class="cls-4" d="M79.44,70.27c.83-.22,2-.85,2.3-.56,1,.92,3,.57,3,2.6a7.8,7.8,0,0,0,.56,2.1c0,.11.18.25.15.3-.76,1.34-1.54,2.66-2.28,3.94-.58-1.2-1-2.25-1.57-3.26-.71-1.35.45-2.18.84-3.22.14-.38.26-.77.38-1.16-.43,0-1-.18-1.29,0C80.74,71.45,80.07,71.8,79.44,70.27Z"/>
          <path class="cls-4" d="M129.87,4.66l-1.81-1.47a17.41,17.41,0,0,1,3-.27,1.49,1.49,0,0,1,1.06,1,5.07,5.07,0,0,1,0,2.54c-.21.62-1,1-1.48,1.53-2-2.21-3.64.41-5.56.49a1.43,1.43,0,0,1,.87-2.05,11.69,11.69,0,0,0,1.76-1.19l2.14,0Z"/>
          <path class="cls-4" d="M158.34,36.28a4.39,4.39,0,0,0,.24.95c.45,1-.42,4.18-1.46,4.37A4.62,4.62,0,0,1,154,41c-.43-.28-.48-1.7-.2-2.39a3.73,3.73,0,0,1,1.87-1.45A18.41,18.41,0,0,1,158.34,36.28Z"/>
          <path class="cls-4" d="M120.83,98.36c1.74.06,3.85-.32,4.59,2.29l-1-.8-.46,1.53-.42-.11.42-1.76-.38-.3c-.26.49-.86,1.16-.72,1.44.8,1.51.43,2.15-1.25,2.16-1.39,0-1.18,1.06-1.24,2a4,4,0,0,1-.34.88l-.52-.12a14.19,14.19,0,0,1-.29-3.81A14.07,14.07,0,0,1,120.83,98.36Z"/>
          <path class="cls-4" d="M113.1,28.69l1.19-1.36c.64-.75.67-2.3,2.29-1.76,2.36-2,2.22.23,2.63,1.53.07.23.13.45.18.65-1.08,1.89-2.86,2-4.66,1.76A5,5,0,0,1,113.1,28.69Z"/>
          <path class="cls-4" d="M163.11,89.08c.73-1.41,1.2-2.29,1.64-3.19.94-2,2.69-2.37,3.75-.79a2.1,2.1,0,0,1,0,1.8c-.5.92-1.09,2.14-1.93,2.45S164.29,89.21,163.11,89.08Z"/>
          <path class="cls-4" d="M144,84.68l-1.71-4.57-.48.07,0,1.69-1.05-.65c.47-1.66.89-3.16,1.21-4.28,1.28,1.52,2.68,3.12,4,4.78a1.48,1.48,0,0,1,.32,1.24c-.2.35-.06,1.54-1.16.85C145,83.73,144.45,84.31,144,84.68Z"/>
          <path class="cls-4" d="M84.68,55.47c-1.69.5-2-.93-2.24-1.72A3.21,3.21,0,0,1,83.1,50c1-.86,1.7-.13,2.38.46s1.28,1.27,2,2a11,11,0,0,1-1.68.87C84.21,53.91,84.19,53.88,84.68,55.47Z"/>
          <path class="cls-4" d="M148.07,104.86c0,.09-.06.18-.1.19a7.63,7.63,0,0,0-2.08.62c-.66.43-1,1.5-1.7,1.68s-1.64-.32-2.47-.52a6.74,6.74,0,0,1,.68-2C144.18,102.56,144.32,102.58,148.07,104.86Z"/>
          <path class="cls-4" d="M158.76,31.58c.2,2.16-.31,2.63-2.51,2.92-.76.11-2.06-1.34-2.12-2.35a3.88,3.88,0,0,1,0-1c.12-.58.31-1.14.46-1.71a14.92,14.92,0,0,0,1.36.87c.42.2.92.24,1.35.43C157.88,31.06,158.45,31.42,158.76,31.58Z"/>
          <path class="cls-4" d="M104.39,55.77a8.44,8.44,0,0,1,1.55,1.57,5.47,5.47,0,0,1,.67,2.2,7.7,7.7,0,0,1-.41,2,16.57,16.57,0,0,1-2.76.05c-.24,0-.65-1-.51-1.34.38-1,1.26-1.79.68-3.09C103.46,56.82,104.17,56.13,104.39,55.77Z"/>
          <path class="cls-4" d="M120.74,320.12l-.18-1.86a3,3,0,0,1,1.08-.15c.82.19,1.45,1.07,2.55.47.23-.12,1.23.88,1.62,1.51.13.21-.43,1.09-.87,1.35C122.86,322.7,122.2,322.46,120.74,320.12Z"/>
          <path class="cls-4" d="M102.09,66.82c.45-.62,2.1,0,1.79-1.63,0,0,.42-.3.56-.24.47.18,1.25.44,1.27.71.08,1.19,2.43,2,.84,3.27-.71.57-2.07.39-3.13.44-.19,0-.41-.6-.58-.94S102.39,67.46,102.09,66.82Z"/>
          <path class="cls-4" d="M90.42,35.78l-1.53,1,.81-3.91,3.7.64-1.35,3.35,1.2.77-2.42.82Z"/>
          <path class="cls-4" d="M134.15,200.32l-.89,1.64c-1.14-1.32-3.3-1.36-3.79-3.44,0-.17-.89-.14-1.44-.21l.14-.92a11.66,11.66,0,0,1,2.9,0,5.2,5.2,0,0,1,2.13,1.37A6,6,0,0,1,134.15,200.32Z"/>
          <path class="cls-4" d="M110.45,64.74l.66,4.23c-3.25.25-3.35-2.23-4.13-4,0-.12.56-.76.82-.73A21.55,21.55,0,0,1,110.45,64.74Z"/>
          <path class="cls-4" d="M114.7,71.5c-.76,1.24-1.56,2.09-3,1-.13-.09-.34,0-.5-.11-.59-.23-1.44-.33-1.68-.77A1.74,1.74,0,0,1,110,70a3.64,3.64,0,0,1,2.54-.43C113.32,69.87,113.94,70.8,114.7,71.5Z"/>
          <path class="cls-4" d="M104.38,312.64l2.24-1.72c1.4,1.89,2.53,3.71.4,5.69C105.8,316.15,105.6,315.85,104.38,312.64Z"/>
          <path class="cls-4" d="M98.52,43.42a39.06,39.06,0,0,0,2-3.39c.31-.65.64-1.8.34-2.11-.53-.54-.63-.85-.3-1.43l-1.85-.6L101,34.28c.39,1.8.82,3.59,1.15,5.4C102.42,41.2,100.45,43.37,98.52,43.42Z"/>
          <path class="cls-4" d="M111.16,309.61l-1.93-.31c.29-1.83,1-2.84,3-3.12s.46,1.83,1.31,1.82l-2.44,3.81Z"/>
          <path class="cls-4" d="M135.89,183.13l1.47.14.8,2.75,1.5-2.25a8.76,8.76,0,0,1,1.45,1.75,1.62,1.62,0,0,1-.28,1.52,2.57,2.57,0,0,1-1.62.31,13.27,13.27,0,0,1-2-.34Z"/>
          <path class="cls-4" d="M144.24,232l.3-4.77,2.1-1.15c.32,1,1.11,2.23.82,3-.47,1.21-1.68,2.13-2.57,3.16Z"/>
          <path class="cls-4" d="M81.76,25.19l-1.14-1.31a8.44,8.44,0,0,1-1.18.84c-1,.47-1.83.41-2.06-.91a3.47,3.47,0,0,1-.15-1c.13-.72.36-1.41.55-2.12.67.19,1.61.16,2,.6A32.74,32.74,0,0,1,82,25.05Z"/>
          <path class="cls-4" d="M150.71,7.4c-1.64-2.81-1.7-3.85-.11-4.48a1.9,1.9,0,0,1,1.73.66C153.35,5.56,152.85,6.66,150.71,7.4Z"/>
          <path class="cls-4" d="M122.07,269.93l-.07-3.85a31.49,31.49,0,0,1,3.16,1.9c1,.79.48,1.61-.08,2.53s-1.17.63-1.83.21Z"/>
          <path class="cls-4" d="M108.87,247.81l-1.17-.91-4,1.36c.07-2.41,1.64-3.49,5-3.75l.46,3Z"/>
          <path class="cls-4" d="M135.82,311.63c1.63,1,3.71-1.05,5.21,1.37l-1.56,0c-.79,1.14-1.43,2.06-2.08,3-.35-.34-.89-.62-1-1A31.38,31.38,0,0,1,135.82,311.63Z"/>
          <path class="cls-4" d="M127.8,40.53l.11-2.17c1.22-.56,2.19-1.07,3.22-1.44.36-.13.84.08,1.27.14-.35.85.89,2.16-.69,2.63C130.55,40,129.34,40.21,127.8,40.53Z"/>
          <path class="cls-4" d="M171.26,150.76l3.1.86,1-1.15,3.34,2.59C176.17,153.92,172.18,152.71,171.26,150.76Z"/>
          <path class="cls-4" d="M85.81,38.48,81.64,34.2l3-1A5.15,5.15,0,0,1,85.81,38.48Z"/>
          <path class="cls-4" d="M90.85,5.27c-.09.48-.2,1-.25,1.44s-.06,1-.07,1.29L87.7,10.37,89,7.11l.31.35.26-2.9.52.25L91.92,3l.83,2.79Z"/>
          <path class="cls-4" d="M152.11,113.29c1.74-.3,3-.1,3.16,1.17.09.62-.83,1.6-1.53,2s-2.17-1.07-2.18-2.22C151.56,113.85,152,113.41,152.11,113.29Z"/>
          <path class="cls-4" d="M135.37,329.73c2.54.33,2.7.69,1.16,3.62-.91-.66-2.68.1-2.72-1.86Z"/>
          <path class="cls-4" d="M147.69,17.59a12.19,12.19,0,0,1-.18,3.54c-.17.49-1.47.6-2.44.95C145.45,17.79,145.45,17.79,147.69,17.59Z"/>
          <path class="cls-4" d="M131.83,231.68c-.43-2,1.4-2,2.39-2.66.12-.08.84.36.94.66.22.66.53,1.68.22,2s-1.38.51-2.11.54C132.82,232.27,132.36,231.9,131.83,231.68Z"/>
          <path class="cls-4" d="M166.68,123.89l.72,4.62-.76.41c-.72-.77-1.92-1.47-2-2.32s.85-1.87,1.33-2.81Z"/>
          <path class="cls-4" d="M101.76,327.27a18,18,0,0,1,.53-1.72.81.81,0,0,1,.76-.16,1.26,1.26,0,0,1,.54.75c.3,1.15-1.25,4.25-2.36,4.46a4.8,4.8,0,0,1-2.13-.46,1.09,1.09,0,0,1,0-.71,2.22,2.22,0,0,1,1.17-.2C101.43,329.48,102.07,329,101.76,327.27Z"/>
          <path class="cls-4" d="M114.3,325.34l-.8-1.12c2.21.28,1.3-1.08,1.27-1.75l1.82-1.08-1-.48c.27-1,1.27-.7,3.06.7Z"/>
          <path class="cls-4" d="M160.66,153.88l-2.35,1.06c-.21-1.8-1.3-1.81-2.63-1.31l-.3-.42c.36-.41.63-1,1.08-1.19C157.58,151.53,159.83,152.55,160.66,153.88Z"/>
          <path class="cls-4" d="M137.27,106.49c.41-.28.41-.28.67,4.16l-2.56.11Z"/>
          <path class="cls-4" d="M88,95c-1,.89-.8,2.88-2.82,2.49a1.43,1.43,0,0,1-1-.73,1.4,1.4,0,0,1,.39-1.18C85.45,94.78,86.33,93.71,88,95Z"/>
          <path class="cls-4" d="M142,254l1,1.47-1.32,2.83c-.55-.71-1.09-1.35-1.55-2-.58-.86-.08-1.69,1-1.89A3.69,3.69,0,0,0,142,254Z"/>
          <path class="cls-4" d="M133.55,210.76c.54-1,.75-2.45,2.55-1.89.45.13,1.16.33,1.22.61A1.88,1.88,0,0,1,137,211a2.15,2.15,0,0,1-1.58.33A8.85,8.85,0,0,1,133.55,210.76Z"/>
          <path class="cls-4" d="M120.46,85.9l-3.38-1.36a8,8,0,0,1,.57-1.87,1.33,1.33,0,0,1,1.26,0,32,32,0,0,1,2.1,2.77Z"/>
          <path class="cls-4" d="M135.93,118.7c-.63,2.25-1.72,2.7-2.66,2l-2.89.21.49-1.41Z"/>
          <path class="cls-4" d="M111.45,28.08l1.37,3.65c-1.25-.14-2.44.52-2.95-1.14S110.6,28.64,111.45,28.08Z"/>
          <path class="cls-4" d="M154.81,78.54c2.73-1,2,1.6,2.91,2.3l-1.43,2.21Z"/>
          <path class="cls-4" d="M146.48,251.16a7.69,7.69,0,0,1,.54-1.55c.18-.28.68-.65.89-.57,1.32.5,2.6,1.12,3.94,1.73l-.46,1.27L149,250.6Z"/>
          <path class="cls-4" d="M153.4,27l-1.53-3.29,2.6-1.19.34.42C153.48,24,155.62,26.14,153.4,27Z"/>
          <path class="cls-4" d="M125.76,25.7a17.4,17.4,0,0,1,2,1.1,1.1,1.1,0,0,1,.35,1,1.73,1.73,0,0,1-1,.92c-1.52.25-2.52-.68-2.72-2.56l1.14,1.33Z"/>
          <path class="cls-4" d="M104.29,46.92l-.93,2.1L99.6,46.6c.09-.58.42-1.13,1.57-.39.31.2.8.1,1.19.19C103,46.54,103.57,46.72,104.29,46.92Z"/>
          <path class="cls-4" d="M102.37,27.21c2,1.88,2.13,2.69.77,3.52a1.64,1.64,0,0,1-1.35.1c-.22-.1-.31-.8-.23-1.18A23.93,23.93,0,0,1,102.37,27.21Z"/>
          <path class="cls-4" d="M158.42,159.2l-.09,1L156,161.25l-.42-1.06c-.19-.53-.39-1.05-.58-1.58.66,0,1.32,0,2,.12A9.44,9.44,0,0,1,158.42,159.2Z"/>
          <path class="cls-4" d="M119.33,61.4,117.09,58l-.44.24.67-1.84L119,58.6l1.18-1.25c-.35,1.59-.62,2.82-.88,4Z"/>
          <path class="cls-4" d="M96.53,29.37l1.16,3.43c-1-.17-2.23,0-2.54-.49s0-1.61.06-2.58Z"/>
          <path class="cls-4" d="M124.77,340l.75,1.16c.14-1.1.21-1.74.32-2.38,0-.17.18-.41.3-.43s.62,0,.72.11c.39.56,1.11,1.46.94,1.72a3.7,3.7,0,0,1-2,1.39c-.3.09-.87-.77-1.32-1.2Z"/>
          <path class="cls-4" d="M120,270.31l-1-1.9-2.4,1.26c.13-.87,0-1.64.35-1.92.49-.41,1.69-.84,1.86-.64C119.48,267.94,120.79,268.67,120,270.31Z"/>
          <path class="cls-4" d="M123.24,11.75c.31,4.12.24,4.22-2.39,3.95Z"/>
          <path class="cls-4" d="M118.83,246.88c-.74,1.42-1.39,2.65-2.15,4.09C115.38,248.5,116.12,247.1,118.83,246.88Z"/>
          <path class="cls-4" d="M150.23,330.8c-2.3-1-2.62-1.63-2-3.95C149.26,328,150.88,328.71,150.23,330.8Z"/>
          <path class="cls-4" d="M88.6,42.85,91,44l.88,1.86a5.41,5.41,0,0,0-1.77-.45c-.47.06-.89.55-1.37.87Z"/>
          <path class="cls-4" d="M109.35,302.14l.31-2.05,1.89-1.51,1.73.8Z"/>
          <path class="cls-4" d="M86,102.43c.17-1,.29-1.76.45-2.65,1.85-1,1.56,1.63,3.22,1.77Z"/>
          <path class="cls-4" d="M129.71,75.16c.24-1.6-.17-3,1.48-2.89.47,0,.83,1.2,1.24,1.84Z"/>
          <path class="cls-4" d="M163,5.25a10.92,10.92,0,0,1,3.17-.76c.66,0,1.27,1,1.75,1.7C167,6,166.37,5,165.36,6.13c-.28.3-1.38-.18-2.1-.3Z"/>
          <path class="cls-4" d="M129.88,172.26l.29,3-1.46.75-1.05-1.81Z"/>
          <path class="cls-4" d="M176.28,91.92a18.31,18.31,0,0,1,.17-2.35c0-.13.87-.32,1-.17.42.46,1,1.15.94,1.61s-.94.86-1.45,1.28Z"/>
          <path class="cls-4" d="M143.17,306.12l1.78,2.32c-.43.28-.9.84-1.28.78-1.81-.28-1.1-1.62-1-2.68Z"/>
          <path class="cls-4" d="M105.1,80.14c-.3.77-.59,1.57-.91,2.35-.41,1-1.11,1.36-2.31.89.71-1.14,1.35-2.15,2.07-3.29Z"/>
          <path class="cls-4" d="M131.59,161.81c-.68-1.77-1.27-3.32-1.86-4.87l.67-.28c.73,1.63,1.45,3.26,2.22,5Z"/>
          <path class="cls-4" d="M122.18,284.76l1.55-.49c0,1-.25,2.43,1.78,2.11a2,2,0,0,1-3,.23C122.1,286.22,122.25,285.21,122.18,284.76Z"/>
          <path class="cls-4" d="M107.54,31.85l2.59.49-.32,2.57-1.6-.43C110.08,32.88,107.12,33.06,107.54,31.85Z"/>
          <path class="cls-4" d="M121.69,154.81l-1.6-3.3,2.14,0-.07,3.35Z"/>
          <path class="cls-4" d="M101.05,321.25l1.26-1.54,2.37.72L102.79,322Z"/>
          <path class="cls-4" d="M109.84,236.18c2.39,1.43-1,2.52,0,3.78C108.43,238.3,108.43,238,109.84,236.18Z"/>
          <path class="cls-4" d="M130.26,109.18,129,107.54l.87-1.87C131.2,106.51,131.29,107.27,130.26,109.18Z"/>
          <path class="cls-4" d="M146.79,261.24l1.57-.86c1.62,2.06,1.61,2.25-.27,3.13a6.84,6.84,0,0,0-.35-1.35C147.56,261.83,147.18,261.61,146.79,261.24Z"/>
          <path class="cls-4" d="M126.23,249.09l-2.14,1.14-.18-.41,4-1.53.88.89-1.69,1.59Z"/>
          <path class="cls-4" d="M92.65,61.87l.09,2.52c-1.35.73-2.13.38-2.4-.86Z"/>
          <path class="cls-4" d="M86,27.83c-1.66,0-.7-1.72-1.5-2.34-.12-.1.29-.88.59-1.71.47,1.67,2.19,2.58.87,4.11Z"/>
          <path class="cls-4" d="M136.34,216.31l.83-1.34c.64.08,1.13.1,1.6.21a.82.82,0,0,1,.56.41c0,.19-.08.6-.23.66-.82.29-1.66.51-2.5.75Z"/>
          <path class="cls-4" d="M126.13,39.1c-.08-1.66-.14-2.88-.19-4.1l.4-.21c.29.25.82.49.83.75C127.21,36.73,127.4,38,126.13,39.1Z"/>
          <path class="cls-4" d="M91.07,1.46l1.4-3.63.32-.09A10,10,0,0,1,93.12.42C93.08.75,92.1,1,91.07,1.46Z"/>
          <path class="cls-4" d="M110,250.19l2.38.33.72-1.69.49.29a11.15,11.15,0,0,1-1.82,2.56c-.28.24-1.31-.4-2-.64Z"/>
          <path class="cls-4" d="M128.87,331c-1.23,1.12-2.36.91-3.76-.36C126.64,329.75,127.74,330.56,128.87,331Z"/>
          <path class="cls-4" d="M151,201a22.14,22.14,0,0,1,2.6.65c.28.1.46.53.6.86,0,.09-.32.48-.37.45a6.46,6.46,0,0,1-.84-.56l-.92-.56-.09,1.54-.37.12Z"/>
          <path class="cls-4" d="M101.68,273.08l-2.54-1.18,2.06-1.54.93,2.18Z"/>
          <path class="cls-4" d="M169.34,151l-1.65-1.26c.37-.42.7-1.16,1.11-1.21,2.31-.26-.29,1.72,1.32,1.86Z"/>
          <path class="cls-4" d="M127.63,138.09c-1.57-.7.16-1.7-.21-2.54l.72-.83,1.37,2Z"/>
          <path class="cls-4" d="M95.55,43.37,92.13,41C94.35,40.77,95.37,41.45,95.55,43.37Z"/>
          <path class="cls-4" d="M127.86,85.15c1.72-1.17,2.43-.09,3.37.94C129.69,87,129,85.94,127.86,85.15Z"/>
          <path class="cls-4" d="M169.64,161.06c-2.22-1.36-1.44-3.12-1.9-4.51l.58-.17Z"/>
          <path class="cls-4" d="M112.21,344.53c-.94,1.49-1.77,1.73-2.7,1.19-.22-.14-.14-.78-.21-1.18Z"/>
          <path class="cls-4" d="M125.22,239.8c1.43.8,1.47,2.13.9,3.71L124.59,240Z"/>
          <path class="cls-4" d="M147.1,265.74l2.32-1.11,0,2.69Z"/>
          <path class="cls-4" d="M115.77,78.91c.82-.2,1.64-.44,2.47-.56.1,0,.29.62.44,1l-2.73.42Z"/>
          <path class="cls-4" d="M177.65,179.08v-2.57l-.51,0,1.42-1.19C179.47,176.82,178.86,178,177.65,179.08Z"/>
          <path class="cls-4" d="M146.15,87.67l.35-2.17,1.27.22-.5,2.17Z"/>
          <path class="cls-4" d="M103.8,102c-.7.57-1.08,1.1-1.53,1.18s-.78-.46-1.18-.72c.39-.43.71-1,1.19-1.25C102.52,101.06,103.06,101.56,103.8,102Z"/>
          <path class="cls-4" d="M171.16,52.92c.32.2.54.36.78.49s.39.17,1.06.46l-2.65,1.76-.4-.43Z"/>
          <path class="cls-4" d="M125.24,105.88a3.42,3.42,0,0,1,3.44-2l-2.91,2.69Z"/>
          <path class="cls-4" d="M130.58,120.75c-.79.56-1.22,1.11-1.65,1.1s-.85-.56-1.27-.88c.38-.36.72-.94,1.14-1S129.73,120.35,130.58,120.75Z"/>
          <path class="cls-4" d="M100.56,227.48l-2.32-.09c.11-.45.21-1.29.35-1.3a10.54,10.54,0,0,1,2.07.25Z"/>
          <path class="cls-4" d="M134.47,26.57c1.29.79,2.22,1.68.5,3.26Z"/>
          <path class="cls-4" d="M143.54,243.15l1.48-.39.31,2C143.69,245.14,143.6,245.07,143.54,243.15Z"/>
          <path class="cls-4" d="M86,27.89l2.72-2.1c-.2,1-.12,1.94-.57,2.38s-1.37.23-2.09.31c0-.22,0-.43,0-.64Z"/>
          <path class="cls-4" d="M139.76,170.1c-2.19-1-2.3-1.57-.74-3.1C139.28,168.07,139.47,168.9,139.76,170.1Z"/>
          <path class="cls-4" d="M178.25,162.81,176,160.34s.49-.4.55-.34a22.19,22.19,0,0,1,2.09,2.25C178.73,162.31,178.28,162.77,178.25,162.81Z"/>
          <path class="cls-4" d="M156.19,338.32c-.51,1.1-.9,2.17-2.37,1.51C153.73,338,154.52,337.55,156.19,338.32Z"/>
          <path class="cls-4" d="M126.21,308.83l-.13-1.33c.48-.11,1.07-.43,1.29-.27a7.46,7.46,0,0,1,1.22,1.72Z"/>
          <path class="cls-4" d="M113.11,265.07l1-1.89c.32.31,1,.78.9.91a8.88,8.88,0,0,1-1.17,1.53Z"/>
          <path class="cls-4" d="M143,152.93,141,154l-.23-1.83,2.1.25Z"/>
          <path class="cls-4" d="M134,31.38c.52,1.9.52,1.9-2.61,2.06Z"/>
          <path class="cls-4" d="M113.26,286.87c.57,2.1,0,2.83-1.83,2.74Z"/>
          <path class="cls-4" d="M125.5,143.5l1.19-.37-.43-.71,2.27-1C128,143.13,127.4,144,125.5,143.5Z"/>
          <path class="cls-4" d="M155,49.11c-1.3.17-2.65,1-2.93-1.37C152.92,48.51,154.36,47.42,155,49.11Z"/>
          <path class="cls-4" d="M120.72,163c.46.94-1.73,1.21-.43,2.34,0,0-.27.45-.43.47a.87.87,0,0,1-.67-.3C118.36,164.5,118.84,163.7,120.72,163Z"/>
          <path class="cls-4" d="M125.09,74.34c.41-1.13.81-2.21,1.32-3.6C127.21,72.31,126.63,73.55,125.09,74.34Z"/>
          <path class="cls-4" d="M116.17,305.36l-3-1C114.49,303.28,115.29,303.47,116.17,305.36Z"/>
          <path class="cls-4" d="M167,183.88l1.9-1.39c.09.92.16,1.64.28,2.83Z"/>
          <path class="cls-4" d="M120.92,306,118.68,308l-.49-.06.07-1.81,2.66-.17Z"/>
          <path class="cls-4" d="M179.17,100.29l3-.46C181.63,101.66,181.28,101.74,179.17,100.29Z"/>
          <path class="cls-4" d="M125.31,95.57l2.86-.66c-.37,2.54-1.78,1.16-2.8,1.14Z"/>
          <path class="cls-4" d="M96.34,90.93,94.86,92l-.42-.19a4.16,4.16,0,0,1,.32-1.7c.13-.2,1,.1,1.51.17Z"/>
          <path class="cls-4" d="M175.06,128.57,172,128l2.12-1.15,1.09,1.2Z"/>
          <path class="cls-4" d="M170,16.34,168.34,16l1.17-2.19.47.17Z"/>
          <path class="cls-4" d="M179.44,49.94l.09-1.94.51-.14,1.13,1.51-1.21.88Z"/>
          <path class="cls-4" d="M140.6,49.16l1.46,2.34-1.92,0L140,49.35Z"/>
          <path class="cls-4" d="M90.3,46.79l-2.09,1.58c-.71-1.19-.71-1.19,1.78-1.95Z"/>
          <path class="cls-4" d="M120.92,333.44l0-1.77,2.18,0-1.63,1.86Z"/>
        </g>
      </g>
    </g>
  </g>
  <g class="cls-6">
    <g id="_2s2bg4-2" data-name="2s2bg4">
      <path class="cls-4" d="M289.43,52.34l1-2c.43.22.42.25-.26,1.68L291,52c-.09.16-.15.41-.23.41C290.27,52.41,289.79,52.36,289.43,52.34Z"/>
    </g>
  </g>
</svg>
