<svg id="Layer_1" data-name="Layer 1" xmlns="http://www.w3.org/2000/svg" xmlns:xlink="http://www.w3.org/1999/xlink" viewBox="0 0 374.62 397.13">
  <defs>
    <style>
      .cls-1 {
        fill: none;
      }

      .cls-2 {
        clip-path: url(#clip-path);
      }

      .cls-3 {
        fill: #ed4c39;
      }

      .cls-4 {
        fill: #2c3b38;
      }

      .cls-5 {
        clip-path: url(#clip-path-2);
      }
    </style>
    <clipPath id="clip-path">
      <polygon class="cls-1" points="294.17 -629.75 224.56 -655.83 230.07 -720.98 333.02 -769.2 455.52 -464.25 239.95 -464.25 379.94 -15.96 286.11 -15.96 174.04 -498.13 403.39 -498.13 326.51 -730.11 251.67 -713.16 267.06 -657.13 305.9 -657.95 294.17 -629.75"/>
    </clipPath>
    <clipPath id="clip-path-2">
      <polygon class="cls-1" points="241.93 103.61 208.69 91.16 211.32 60.05 260.48 37.02 318.98 182.64 216.04 182.64 282.89 396.7 238.08 396.7 184.57 166.46 294.08 166.46 257.37 55.69 221.64 63.78 228.99 90.54 247.53 90.15 241.93 103.61"/>
    </clipPath>
  </defs>
  <title>Tentacle5</title>
  <g class="cls-2">
    <g id="_2s2bg4" data-name="2s2bg4">
      <g>
        <path class="cls-3" d="M330.57,87.39c-.37-.94-.74-1.87-1.2-3.07l3.09-2.81,3.8,2.08-3.49,3.8Z"/>
        <path class="cls-3" d="M230.53,87.39c-.52-.82-1.07-1.61-1.54-2.46-.39-.67-.68-1.4-1-2.11.94,0,2.3-.33,2.72.15a28.48,28.48,0,0,1,2.79,4.42Z"/>
        <path class="cls-3" d="M129.42-14.47c6.25,1.08,6.25,1.08,6.19,11.11L141.37.73l-1.05,1.45L136.59-.57c-1.82,4.86-3.63,9.7-5.31,14.22l-4.78-.46c.09,1.24.19,2.49.33,4.35-4.14,3.76-9.86,4.54-15.89,3.51-1.17-.2-2.27-1.7-3.1-2.83a57.27,57.27,0,0,1-3.11-5.45,64.4,64.4,0,0,0,5.11-7.23c.38-.69-1.09-2.39-2.12-4.44,1.1-1.68,3.19-3.25,6.87-1.74.51.2,2-2.07,3.08-3.2l-.59-.78,6.09-.84-.66-.41Z"/>
        <path class="cls-3" d="M155.22-2l4.35-2.41c2.13,6.77,4.17,13.27,6.21,19.74-5.05,3.63-11.69,4.17-15.36,1.18l2.5-1.31L151.19,9.6l-5.34,2.81L141.9,6.62l-1,.51,2.36-4.53a12.15,12.15,0,0,0,2.49-.32c.16-2.32.11-4.65.11-6.19,1.62-1.7,3-3.16,4.6-4.79l3.45,2.27-4.68,2.31,1,1.53C152.22-4.32,154.23-6.36,155.22-2Z"/>
        <path class="cls-3" d="M43.47,43.94c3.75-.81,7.36-1.93,11-2.14.91-.06,2.49,2.69,2.85,4.35s-.74,3.29-.93,5c-.27,2.37-.31,4.76-.41,7.15,0,.48.3,1,.15,1.43-.48,1.34-.76,3.15-1.76,3.83-2.15,1.48-3-1.09-3.49-2.2C48.34,55.84,46.11,50.2,43.47,43.94Z"/>
        <path class="cls-3" d="M232.34,48.14c2.37-.47,1-2.61,0-5.45,2,1.82,4.64-.4,5.36,2.77a3.67,3.67,0,0,0,2.47-.15c2.8-2.27,4.94-.69,6.43,1.37,2.58,3.55,2.18,6.35-.51,8.36-2.22,1.67-4.34,3.48-6.62,5.07a3.3,3.3,0,0,1-2.64.54c-.57-.24-.76-1.5-1-2.33C234.67,55,233.54,51.64,232.34,48.14Z"/>
        <path class="cls-3" d="M62.75,2.38l1.47-2L67.6,4.32l1.08-.18C68.53,3,68.45,1.76,68.19.6,68-.39,67-1.87,67.3-2.18a4.7,4.7,0,0,1,3.24-1.47c3.86.43,6.08,3.36,7.62,6.45,1.73,3.47-.29,7.61-3.55,9.92-2.71,1.92-4-.19-5.2-1.54C67.11,8.62,65.22,5.7,62.75,2.38Z"/>
        <path class="cls-3" d="M343.08,23.75l3.29,3.62a38.46,38.46,0,0,1-6.22-.39,3.17,3.17,0,0,1-1.88-2.37,10.68,10.68,0,0,1,.87-5.26c.65-1.21,2.39-1.84,3.57-2.68,3.42,5.22,7.66.31,11.66.76.36,2.14-.28,3.36-2.47,4a23.84,23.84,0,0,0-4,1.91l-4.45-.59Z"/>
        <path class="cls-3" d="M82.33,52.48l-1,3.17c-2.28-.47-5.27-.17-6.39-1.47-5.75-6.69-5.58-6.83-5.57-10.44l1.73,2.66a6.25,6.25,0,0,0,1-.88c.56-.82,1.07-1.69,1.59-2.54a9.92,9.92,0,0,1,2,2.36C77.85,50.41,77.8,50.43,82.33,52.48Z"/>
        <path class="cls-3" d="M87.74,54.14l9.5-1.1.45-.71-9.18-5.09c1.41-3,3.89-3.27,7.87-1.16,2.57,1.37,3.5,6.09,1.82,9.26C97.13,57.36,91.87,56.82,87.74,54.14Z"/>
        <path class="cls-3" d="M372.08,45.8c-.72-1.41-2.27-3-2-4.18.49-2.17-.59-6.38,4.33-5.19.4.1,1-.81,1.69-1.35l2.19,2c.23,2.5.38,4.13.53,5.79-2,1.2-6-1.74-6.79,2.91Z"/>
        <path class="cls-3" d="M267.19,27l-4.33-1.69,3.85-1.21c.94,2.4,2.8,4.86,2.62,7.17-.4,5.19-3.77,8.94-8.46,12.66C263.17,37.76,265.14,32.5,267.19,27Z"/>
        <path class="cls-3" d="M300.84,11.39c2.5,6.33,2.28,8.52-1.21,9.31a4,4,0,0,1-3.37-1.93C294.78,14.34,296.18,12.24,300.84,11.39Z"/>
        <path class="cls-3" d="M356.41,66.68c1.93-1.65,3.87-3.29,5.79-4.92l1.73,8.48c-2.82-.43-6.63,4.63-8.82-1.18l1.42-2.5Z"/>
        <path class="cls-3" d="M229.12,6.71c-.4-3.76-.81-7.51-1.25-11.66l3.41-.46c3.46,4.35,2.75,8.26-.49,12Z"/>
        <path class="cls-3" d="M174.86,65.49l.67-2.11L184,60.67c-.58,1.85-1.12,3.61-1.68,5.42l2.55.79c-.24.65-.31,1.68-.75,1.88a4.18,4.18,0,0,1-3,.39C179,68.12,176.94,66.73,174.86,65.49Z"/>
        <path class="cls-3" d="M16.29-4.09c-.21,2.87.13,5.24-.74,7-.41.84-3.15.63-4.84.64-.48,0-1-.9-1.46-1.38C11.08.69,8.83-4.07,13.6-3.24,14-3.17,14.49-3.51,16.29-4.09Z"/>
        <path class="cls-3" d="M372,45.75l-5.2,10.11-2.22-1.2c-1-2.32,3-5.94-1.94-7.3,1.39-.87,2.55-4.37,4.4-.25.09.18,2.07-.48,3.16-.76.62-.17,1.23-.37,1.85-.55Z"/>
        <path class="cls-3" d="M211.51,31.08,211,32.82c1.9.15,3.67.73,5.08.26.91-.31,1.28-2.18,2.12-3.79.63,1,1.32,2.06,2.18,3.41-2.86,1-5.61,2.16-8.46,3-1.16.33-2.52,0-3.79-.1a12.67,12.67,0,0,1,.59-3.69c.33-.72,1.49-1.05,2.29-1.56Z"/>
        <path class="cls-3" d="M356.53,66.56l-5.76,2.89c-1.33-2.23-4.29-4.55.06-6.75a2.75,2.75,0,0,1,2.48.12,30.56,30.56,0,0,1,3.09,3.86Z"/>
        <path class="cls-3" d="M378.38,75.9l-3.93,5.49-2.62-1.76-.12,2.09-.84.14c-.18-1.32-.85-2.8-.47-3.92C371.89,73.57,375.31,76,378.38,75.9Z"/>
        <path class="cls-3" d="M195.47,5.82l6.09-3.17c.47,1.79,1,3.84,1.54,5.88-1,.22-2.35.93-3.12.55A29.26,29.26,0,0,1,195.47,5.82Z"/>
        <path class="cls-3" d="M163.78,46.82c.9,1.14,2.75,3.08,2.57,3.29a15.17,15.17,0,0,1-4.69,4c-1.2.58-2.93.11-4.88.11L158,50.25l3.87,2.49Z"/>
        <path class="cls-3" d="M5.32,84.76c.93-3,1.86-6,3-9.56l3.85,2.27L8.87,79.31c.5.72,1.58,1.86,1.41,2.08a46.71,46.71,0,0,1-3.69,4Z"/>
        <path class="cls-3" d="M359.09,11.2c.67-8.64.84-8.81,6.2-7.41Z"/>
        <path class="cls-3" d="M157.54,38.44l4.8-3L165,41.69l-1,.71C162.08,41.26,160.23,40.11,157.54,38.44Z"/>
        <path class="cls-3" d="M274.65,11.89c-2.28.25-4.67,1-6.8.56-1.35-.29-2.32-2.38-3.08-4.07,1.84.76,2.9,2.88,5.36.94.66-.52,2.79.81,4.24,1.29C274.47,11,274.56,11.46,274.65,11.89Z"/>
        <path class="cls-3" d="M229.88,78.06l-8.64,4.1c.18-2.06.31-3.56.43-5.06,1.42.18,2.84.37,4.26.54C226.94,77.76,228,77.86,229.88,78.06Z"/>
        <path class="cls-3" d="M205.69,74.91c2-1.73,3.5-3,5-4.35.63,1,1.75,2,1.78,3.09.07,3.31-3.33,1.08-4.6,2.5A11.48,11.48,0,0,1,205.69,74.91Z"/>
        <path class="cls-3" d="M185.1,19.1l-2.52-3.8c.18-1.12.42-2.68.66-4.18C187.89,14.79,188,15.27,185.1,19.1Z"/>
        <path class="cls-3" d="M273.73,46.45l-6.5.89c.12-.82,0-2.13.42-2.35C269.41,44.08,271.42,42,273.73,46.45Z"/>
        <path class="cls-3" d="M223.78,4.33c-4.28-2.92.4-4.9,0-7.81C226.7-.43,226.67.36,223.78,4.33Z"/>
        <path class="cls-3" d="M154.91,58.57c-4.16,1.06-5.56.16-6.83-4.07C151.78,53.57,152.38,57.24,154.91,58.57Z"/>
        <path class="cls-3" d="M238.24,42.81l-4.35-3.68c1.53-1.16,2.73-2.08,4.35-3.33Z"/>
        <path class="cls-3" d="M-3.37,52.36A20,20,0,0,1-.09,54.7a2.24,2.24,0,0,1-.36,2.11c-.9.41-2.76.69-2.94.35a15.37,15.37,0,0,1-1-4.07Z"/>
        <path class="cls-3" d="M166.88,85.36,162.19,80l.79-.7c2.15,1.35,5.48,1.61,5,5.41Z"/>
        <path class="cls-3" d="M278.63,42.81c3.12,2.68,3.17,3.07.7,6.24C277.18,47.4,277.05,46.31,278.63,42.81Z"/>
        <path class="cls-3" d="M176.43-1.59,178.73,3c-.83.12-1.76.53-2.47.29-1.4-.47-4,.05-3.2-3.35l2.6,1.53c0-1-.09-1.84-.13-2.68Z"/>
        <path class="cls-3" d="M360,38.07l3.16,6.45C359.62,44.34,359.34,43.92,360,38.07Z"/>
        <path class="cls-3" d="M158.91,46l-3.23.3-1.46-4.37.84-.42L159.57,45Z"/>
        <path class="cls-3" d="M108.92,77.13l1.17-4.4,5,4.4Z"/>
        <path class="cls-3" d="M307.87,54.63v3.83l-.67.62q-1.72-1.89-3.43-3.79Z"/>
        <path class="cls-3" d="M228.39,45.41l2.31,4-3.39,3-.61-.44C227.23,49.84,227.76,47.8,228.39,45.41Z"/>
      </g>
    </g>
  </g>
  <g>
    <g>
      <polygon class="cls-4" points="282.89 396.7 216.04 182.64 318.98 182.64 260.48 37.02 211.32 60.05 208.69 91.16 241.93 103.61 251.77 79.96 231.78 81.2 228.99 67.69 254.26 64.4 282.26 157.12 169.84 151.52 216.04 396.7 282.89 396.7"/>
      <polygon class="cls-3" points="216.04 396.7 238.08 396.7 184.56 166.46 294.09 166.46 257.37 55.69 221.64 63.78 228.99 90.54 247.53 90.15 251.77 79.96 231.78 81.2 228.99 67.69 254.26 64.4 282.26 157.12 169.84 151.52 216.04 396.7"/>
    </g>
    <g class="cls-5">
      <g id="_2s2bg4-2" data-name="2s2bg4">
        <g>
          <path class="cls-3" d="M229.79,237.76l.17.64c-.44.92-.87,1.4-.87,1.88a4.57,4.57,0,0,1-1.82,3.91c-1.66,1.29-3.23,2.69-4.85,4.05-.88-1.41-.88-1.41.86-3.88l-1.6-.42.54-2.17.43.07a4,4,0,0,0-.08.91c0,.31.14.82.31.87a2.25,2.25,0,0,0,1.31-.07c.17-.07.3-.63.21-.89-.28-.87-.66-1.71-1.05-2.68,1.07-2.18,1.42-2.33,4-1.14,1.32.61,1.83-.34,2.52-1.05Z"/>
          <path class="cls-3" d="M202.7,179.7c.47-.51.89-1.19,1.09-1.13,1.06.32,2.73.63,2.93,1.32a26.23,26.23,0,0,0,1.51,3c.1.23-.84,1.23-1.41,1.34a17.1,17.1,0,0,1-4.61.4,1.5,1.5,0,0,1-1.41-2.16L199,180.63l3.15-1.32Z"/>
          <path class="cls-3" d="M248.24,174c-1.11-.32-2.52-.29-2.49-2,0-.14.29-.27.45-.41-1-.2-1-.2-2.58,2.62-1.87-4-1.87-4-4.06-4.7-.43.57-.85,1.1-1.58,2l.83-3.37c1.19-.16,3.12-1.22,3.44,1.89,2-1,3.1-3.46,6-2.79L246,168.44v.29l3.39-.29c-.76,1.52-2.3,3-.18,4.6l-.92,1Z"/>
          <path class="cls-3" d="M246.76,101.2l-2.13.59a11.11,11.11,0,0,0-.47-2.32,8.71,8.71,0,0,0-1.3-1.78l-.47.18.87-3.59,1.19.16c0-1.68.06-1.72,2.4-.65L246,95l.38-.43,1.5,1.79c0-.34,0-.91.1-1.46a3.19,3.19,0,0,1,.55-1.51c.07,1.09.16,2.19.2,3.28a2.08,2.08,0,0,1-.18,1C248,98.79,247.43,99.9,246.76,101.2Z"/>
          <path class="cls-3" d="M221.78,196.15c-.05.89-.1,1.78-.17,3-2.17-1.9-.41-4.32-1.2-6.23l1.23.63v-1l2-.11-4.28-1.61c1.39-1.75,5.3-.43,5.54,1.47.14,1.06.4,2.11.58,3.07-.62.18-1.15.36-1.7.48S222.55,196,221.78,196.15Z"/>
          <path class="cls-3" d="M201.77,320.66h-1.71l-.13-2.38-1.75-2.73,3-1.48.35,2,1.51-.27c-.33,1.7,2.92,1.06,2,3.43l-3.23-.59Z"/>
          <path class="cls-3" d="M212,234.26c-.63-.72-.46-2.5-2.35-1.29a17.76,17.76,0,0,0,.31-3.17,16.8,16.8,0,0,0-.83-2.23,16.78,16.78,0,0,1-.25-2.26l2.21.69.21,1h-1.17l-.19.45,3.14,1.84C212.33,230.46,214.75,232.83,212,234.26Z"/>
          <path class="cls-3" d="M258.68,86.71l1.71.26c.33-.51.67-1.35.89-1.32a6.68,6.68,0,0,1,1.89.9l.7-1c.16,1.29.39,2.79.49,4.29a11.1,11.1,0,0,1-.23,2.13c-.34-.06-.7-.09-1-.16s-.67-.18-1.24-.33l.67-1.26c-.19-1.67-1.53-2-3.34-1.76Z"/>
          <path class="cls-3" d="M245.37,327.16c-.93,1.28-1.54,2.07-2.11,2.89-1.23,1.8-3,1.94-3.83.21a2.11,2.11,0,0,1,.31-1.77c.63-.84,1.4-1.95,2.28-2.13S244.22,326.85,245.37,327.16Z"/>
          <path class="cls-3" d="M210.78,345.25c-.74-1.31-1.8-2.58-1.57-2.88a11,11,0,0,1,3.26-2.77c.64-.37,2.24,1.81,1.7,2.86S212.26,344.09,210.78,345.25Z"/>
          <path class="cls-3" d="M210.53,216.28c-3.37-1.41-3.79-2.82-1.84-6.2C211.08,210.51,212.07,213.84,210.53,216.28Z"/>
          <path class="cls-3" d="M184.79,192.36a9,9,0,0,1,1.29-2.49,2.17,2.17,0,0,1,2.08-.18c1.28,1,2.52,2.14,1.62,4.07-.09.18,0,.45,0,.55Z"/>
          <path class="cls-3" d="M248.24,174c1.32-.14,2.06-.72,1.56-2.21a2.08,2.08,0,0,1,.44.1c1.75,1.07,2.16.85,2.48-1.23a7.24,7.24,0,0,1,.67-1.57c1.65,1.52,1.65,1.52,1.16,2.11.43.61,1.15,1.18,1.13,1.72,0,.93-.8,1-1.71.8-.36-.08-.89.51-1.54.92l-.58-1.19-3.61.54Z"/>
          <path class="cls-3" d="M288.42,104.62l-2.27,2.1-.29-1.26-1.92.33c.13-1.27-.1-3,.41-3.27C286.73,101.36,287.06,101.65,288.42,104.62Z"/>
          <path class="cls-3" d="M226.13,84.52a19.82,19.82,0,0,1-1.87-2.21,6.23,6.23,0,0,1-.45-1.82c.81.07,1.35-2,2.45-.22.43.71,1.43,1.07,2.17,1.59L226.58,84Z"/>
          <path class="cls-3" d="M210.1,64.45c1.87,1.47,2.53,3.93,1.32,5.66-.34.49-1.29.54-2,.8-.07-.61-.16-1.22-.18-1.83,0-.24.25-.5.24-.74C209.4,66.21,209.42,66,210.1,64.45Z"/>
          <path class="cls-3" d="M228.77,231.08c1.12.2,2.61,0,3.28.7s.58,2.1-.54,3.11a11.22,11.22,0,0,0-1.72,2.87l0,0-.5-1.75-.9.19v-1.55l1.36.22c.25-1,.46-1.93.67-2.84Z"/>
          <path class="cls-3" d="M276.44,83.54l-4.3-1.29a6.91,6.91,0,0,1,.92-2.2c.3-.34,1.17-.19,2-.27l.1-1,.38-.08C275.78,80.11,276.06,81.54,276.44,83.54Z"/>
          <path class="cls-3" d="M197,223c.48.92,1,1.61.24,2.67-.26.35.49,1.33,0,2.18s-.54,1-1.4-.19l1.07.6c-.57-1.95-2.54-.68-3.62-2l2-.84C193.77,223.52,196.19,223.81,197,223Z"/>
          <path class="cls-3" d="M259.35,71.41l.35-1.32-2.35-.46,4-3,.11-1.11,1.57.66c.11.58-2,.73-.37,1.75a1.16,1.16,0,0,1-1.25,1.49c-1-.11-2-.1-1,1.37.06.1-.48.59-.74.9Z"/>
          <path class="cls-3" d="M246.76,265l-2.93-1.33-1.13,1-2.91-3.06C242.39,261.07,246.15,262.88,246.76,265Z"/>
          <path class="cls-3" d="M234.43,219.28a13.33,13.33,0,0,1-.69,1.44c-.4.57-.87,1.09-1.31,1.63a18.51,18.51,0,0,1-1.76-1.9c-.27-.37-.22-1-.39-1.9Z"/>
          <path class="cls-3" d="M246.59,65.36l2.22,1.19-.93,1.93,1.51-.69c-.92,1.23-2.84,1.82-3.48,1.24C244.09,67.38,246.42,66.69,246.59,65.36Z"/>
          <path class="cls-3" d="M247.17,292.2v-4.67l.81-.29c.59.87,1.67,1.75,1.65,2.6s-1.12,1.72-1.75,2.58Z"/>
          <path class="cls-3" d="M201.12,348.85l-.37-1.94-1,1.12c-1.45-.73-.24-1.7.08-2.17.42-.63.85,0,1.36.5s1.78.57,2.93.88v1.61Z"/>
          <path class="cls-3" d="M219.9,172c-.42,1.05-.57,2.51-1.2,2.76s-1.92-.44-3-.75c.9-1,1.56-1.82,2.32-2.71Z"/>
          <path class="cls-3" d="M213.43,195.85c-1.89-1.27-2.45-2.62-1.81-5.72.32.47.61,1,1,1.41s.82.91,1.07,1.18Z"/>
          <path class="cls-3" d="M195.84,196c.09.39.33.8.22,1.08a18.82,18.82,0,0,1-1.48,3.26c-.22.35-1,.34-1.53.49-.05-.48-.29-1.06-.09-1.41a35.48,35.48,0,0,1,2.11-3.21C195.14,196.06,195.38,196.07,195.84,196Z"/>
          <path class="cls-3" d="M291.46,167.44l-.73-1.61,1.73-2.59c.43.79.87,1.5,1.22,2.26.44.93-.18,1.68-1.31,1.7A3.46,3.46,0,0,0,291.46,167.44Z"/>
          <path class="cls-3" d="M230.11,347.38c-.38-.3-.79-.48-1-.8s-.28-1.06-.17-1.11c.46-.22,1.27-.52,1.48-.31.94.93,3,.09,3.2,2.06a.78.78,0,0,1-.38.65.72.72,0,0,1-.64-.33C232,345.68,231.09,346.73,230.11,347.38Z"/>
          <path class="cls-3" d="M195.21,332.36c2.59,0,3.36.51,3.2,2.2,0,.29-.88.83-1,.74-.83-.57-2.73-.47-1.72-2.38C195.73,332.85,195.42,332.6,195.21,332.36Z"/>
          <path class="cls-3" d="M252,338.84c-2.85.55-1.74-1.89-2.53-2.72l1.76-2Z"/>
          <path class="cls-3" d="M286.62,169.53a7.69,7.69,0,0,1-.78,1.45c-.21.25-.77.54-1,.43-1.23-.71-2.4-1.51-3.63-2.31l.65-1.19,2.18,1.79Z"/>
          <path class="cls-3" d="M200.85,246.79V245h2.57c1.16.59.44,2,0,2.32s-1.72.11-2.61.11Z"/>
          <path class="cls-3" d="M210.05,286.28c.89-1-.58-3.51,2.27-3.13C213.17,286.05,212.62,286.86,210.05,286.28Z"/>
          <path class="cls-3" d="M221.43,94.11c1,.52,2.1,1,3.09,1.6.15.09,0,.73-.06,1.11A7.1,7.1,0,0,1,222,96.5c-.55-.28-.8-1.14-1.19-1.75Z"/>
          <path class="cls-3" d="M204.56,326.23a8.27,8.27,0,0,1,2.13,1.3c.24.3.11,1.41-.1,1.49a9.43,9.43,0,0,1-2.28.32C204.38,328.48,204.45,327.62,204.56,326.23Z"/>
          <path class="cls-3" d="M278.71,167.46l-2.27-2.66c1.12-.26,2.21-.88,2.72-.57C280.81,165.24,279.31,166.2,278.71,167.46Z"/>
          <path class="cls-3" d="M221.85,66.41c1.37.61,2,1.53,1.53,2.9a1.29,1.29,0,0,1-1.21.47C221.24,69.31,221.09,67.34,221.85,66.41Z"/>
          <path class="cls-3" d="M242.79,233.27a19.71,19.71,0,0,1-2.52.86,3.24,3.24,0,0,1-1.54-.26c-.11,0-.21-.65-.1-.74.46-.38,1-.91,1.51-.91a11.8,11.8,0,0,1,2.62.6Z"/>
          <path class="cls-3" d="M207.49,271.29c1.41-1.66,2.95-.78,4.48-.7C210.7,272.41,209.77,272.58,207.49,271.29Z"/>
          <path class="cls-3" d="M313.28,178l2.76-3.71C316.94,176.92,316,178.19,313.28,178Z"/>
          <path class="cls-3" d="M219.79,209.13A10.39,10.39,0,0,1,220,211a8.24,8.24,0,0,1-.45,2c0,.12-.72.16-.74.12-.17-.55-.26-1.12-.4-1.69C218.07,210.12,218.19,209.14,219.79,209.13Z"/>
          <path class="cls-3" d="M192.21,170.82c-1.87-1-2.3-.08-2.23.81l-1.24,1.07c-1-1.15-.16-2.45,2.57-3.77Z"/>
          <path class="cls-3" d="M232.65,198.26c.17,1.1-.67,2.11-2.72,3l-.28-2.22Z"/>
          <path class="cls-3" d="M232.79,322.33a19.68,19.68,0,0,1-.53,2.3c0,.12-.91.18-1,0-.35-.52-.85-1.3-.68-1.74s1.05-.7,1.62-1Z"/>
          <path class="cls-3" d="M216.39,297c1.57.23,3.53-.3,3,2.34C218,299.2,216.72,298.84,216.39,297Z"/>
          <path class="cls-3" d="M201.37,283.34l.16-2.33.51-.22,1.83,1.58-2,1.34Z"/>
          <path class="cls-3" d="M194.9,234.64c-.39.85-.57,1.23-.74,1.61l-.54-.21a6,6,0,0,1,.87-1.71c.18-.18,1.09,0,1.35.33.65.75,1.48,1.6.29,2.79Z"/>
          <path class="cls-3" d="M233.56,196.55c-1.43-.18-2.77-.34-4.09-.55-.11,0-.16-.37-.23-.57C231.56,194.35,232.42,194.57,233.56,196.55Z"/>
          <path class="cls-3" d="M214.59,102.65c-1.22,1.12-1.91-.21-2.77-.64a9.41,9.41,0,0,1-1.39-1c.35-.54,1.29-.61,2.37.19.62.46,1.18,1,1.78,1.52A.1.1,0,0,1,214.59,102.65Z"/>
          <path class="cls-3" d="M234.11,251.78c-3.6-1.65-4.13-2.37-2.25-3.75-.9,1.58-.42,2.08,1,2.2.58.05,1.1.7,1.65,1.08Z"/>
          <path class="cls-3" d="M287.85,159.52l-1.68.6c-1.29-2.27-1.25-2.46.75-3.05a6.33,6.33,0,0,0,.14,1.4A4.55,4.55,0,0,0,287.85,159.52Z"/>
          <path class="cls-3" d="M306.31,174.68l2.29-.81.12.44-4.21.9-.74-1,1.92-1.32Z"/>
          <path class="cls-3" d="M212.91,166.94a20.82,20.82,0,0,1-.31,2.34,1.17,1.17,0,0,1-.63.68.8.8,0,0,1-.69-.3C210.68,168.75,211.52,167.19,212.91,166.94Z"/>
          <path class="cls-3" d="M196.45,290.86a7.67,7.67,0,0,1,.05-2.4c.17-.39.86-.63,1.36-.75.14,0,.69.73.63.82C198,289.21,197.4,289.81,196.45,290.86Z"/>
          <path class="cls-3" d="M215.85,106.79a6.83,6.83,0,0,1,1.2-.48,10.21,10.21,0,0,1,1.57-.06c0,.52,0,1,0,1.56a6.69,6.69,0,0,1-1.69-.16,4,4,0,0,1-1.09-.86Z"/>
          <path class="cls-3" d="M212.86,349.14a9.32,9.32,0,0,1-.37,2.12c-.09.22-.82.29-1.24.24a1.06,1.06,0,0,1-.68-.66c0-.15.29-.47.49-.68.39-.39.81-.75,1.22-1.13Z"/>
          <path class="cls-3" d="M194.63,241c.41.78.87,1.56,1.24,2.38a1,1,0,0,1-.05.91,1,1,0,0,1-.9,0C193.88,243.72,193.77,242,194.63,241Z"/>
          <path class="cls-3" d="M248.69,265.06l1.44,1.5c-.43.36-.87,1-1.29,1-2.32-.09.55-1.65-1-2Z"/>
          <path class="cls-3" d="M249.94,255c2,1.68.94,3.3,1.18,4.75l-.59.08Z"/>
          <path class="cls-3" d="M280.18,106.54c.75-1.32,1.7-1.67,3.22-.45C282.15,106.24,281.63,108.81,280.18,106.54Z"/>
          <path class="cls-3" d="M205.25,296.73l3.39-1,.16.29-3.23,2.4Z"/>
          <path class="cls-3" d="M218.24,282.66l-2.71.21c1-1.12,1.64-1.83,2.29-2.52,0,0,.21.06.42.12Z"/>
          <path class="cls-3" d="M198.48,278.48l2,1.74-1.81.94-1-.71Z"/>
          <path class="cls-3" d="M223.78,353.48l1.69,1.57-2.22,1.28-.35-.26Z"/>
          <path class="cls-3" d="M217.74,85.39l3.1,2.64-.56.64c-2,.13-1.46-2.46-3-2.85Z"/>
          <path class="cls-3" d="M305.88,184c-1.28-1-1.12-2.33-.31-3.8.32,1.22.65,2.45,1,3.67Z"/>
          <path class="cls-3" d="M288.24,155l-2.47.74.37-2.67Z"/>
          <path class="cls-3" d="M244.78,236l-.39,2.54.5.11-1.58,1C242.63,237.94,243.41,236.9,244.78,236Z"/>
          <path class="cls-3" d="M214.71,348.23c1.26-.9,2.1-.78,2.45.95l-1.55.82Z"/>
          <path class="cls-3" d="M233.43,96.13l3.33-.22L235,98.41Z"/>
          <path class="cls-3" d="M218.49,215.19l1.13-1.49c.26.43.76.87.73,1.27s-.54.94-.83,1.42Z"/>
          <path class="cls-3" d="M231.88,361.65c-.28-.24-.48-.43-.7-.6s-.36-.23-1-.62l2.89-1.33.32.49Z"/>
          <path class="cls-3" d="M216.94,364l2,1.33-3.09-.25c.74-1.86,1.07-2,3.28-1.29Z"/>
          <path class="cls-3" d="M223.06,164.93c.32.64.63,1.29.94,1.93l-1.23.53c-.21-.69-.41-1.39-.62-2.08Z"/>
          <path class="cls-3" d="M267.16,72.92l-.6,2.17c-.39-.25-1.14-.55-1.11-.74a7.61,7.61,0,0,1,.72-1.8Z"/>
          <path class="cls-3" d="M288.3,177.9l-1.53.15v-2C288.45,175.9,288.53,176,288.3,177.9Z"/>
          <path class="cls-3" d="M247,355.51c.52-.48.85-1,1.24-1.07s1,.73.94.85a8,8,0,0,1-1.13,1.43Z"/>
          <path class="cls-3" d="M221.62,309.68l-1,2c-.3-.33-.9-.78-.82-1a6.62,6.62,0,0,1,1.06-1.52Z"/>
          <path class="cls-3" d="M241.7,252l1.81,2.79s-.55.31-.6.24a24.18,24.18,0,0,1-1.73-2.54C241.14,252.4,241.66,252,241.7,252Z"/>
          <path class="cls-3" d="M200,291.85c.46.94,2.61.35,1.8,2.91l-2.26-2.53Z"/>
          <path class="cls-3" d="M219.69,71.51c0,1.19.86,2.61-.26,3.54l-.85-.25Z"/>
          <path class="cls-3" d="M232.15,201.44l2.16-.91c.09.32.37.79.26.93C234,202.2,233.24,202.94,232.15,201.44Z"/>
          <path class="cls-3" d="M212.67,245.68c-.5.41-1,.82-1.51,1.22l-.54-1.52,1.61-.47Z"/>
          <path class="cls-3" d="M196.58,207.66l2.55-1.74v2.47Z"/>
          <path class="cls-3" d="M252.43,363.21l-.58-3.4.65-.15.91,3.38Z"/>
          <path class="cls-3" d="M231.22,313.62h-3C229,311.89,229.35,311.86,231.22,313.62Z"/>
          <path class="cls-3" d="M246.17,180.55l.21-2.85.38-.15a7.14,7.14,0,0,1,.62,2c0,.45-.53.91-.83,1.36Z"/>
          <path class="cls-3" d="M239.61,286.3l2.94,1.07-2.26.82-.9-1.36Z"/>
          <path class="cls-3" d="M223.24,363.33l-.39,1.9-.52.06-.89-1.66,1.33-.69Z"/>
          <path class="cls-3" d="M260.48,102a7.79,7.79,0,0,1,.7.62,1.4,1.4,0,0,1,.18.49c-1.66-.61-1.77-.93-.81-2.94l.81,1.27Z"/>
        </g>
      </g>
    </g>
  </g>
</svg>
