<svg id="Layer_1" data-name="Layer 1" xmlns="http://www.w3.org/2000/svg" xmlns:xlink="http://www.w3.org/1999/xlink" viewBox="0 0 374.62 397.13">
  <defs>
    <style>
      .cls-1, .cls-2 {
        fill: none;
      }

      .cls-2, .cls-6 {
        clip-path: url(#clip-path);
      }

      .cls-3 {
        clip-path: url(#clip-path-2);
      }

      .cls-4 {
        fill: #ed4c39;
      }

      .cls-5 {
        fill: #2c3b38;
      }
    </style>
    <clipPath id="clip-path">
      <polygon class="cls-1" points="328 164.58 356.99 166.48 374.39 190.87 355.96 272.07 296.27 253.88 299.62 366.15 257.54 321.08 283.41 226.91 346.9 258.35 368.28 198.12 340.58 175.96 333.75 199.25 328.99 198.46 328 164.58"/>
    </clipPath>
    <clipPath id="clip-path-2">
      <polygon class="cls-1" points="-124.9 -629.75 -194.51 -655.83 -189 -720.98 -86.05 -769.2 36.45 -464.25 -179.12 -464.25 -39.13 -15.96 -132.96 -15.96 -245.03 -498.13 -15.68 -498.13 -92.56 -730.11 -167.4 -713.16 -152.01 -657.13 -113.17 -657.95 -124.9 -629.75"/>
    </clipPath>
  </defs>
  <title>Tentacle4</title>
  <g class="cls-3">
    <g id="_2s2bg4" data-name="2s2bg4">
      <g>
        <path class="cls-4" d="M249.11,55.76c-.68.72-1.83,1.38-1.92,2.16a17.05,17.05,0,0,0,.53,4.3l-4.28.65,1-11-6,3.92-1.07-5,3.38-.44.75-5.1,2.21,3.35,5.42-5.33Z"/>
        <path class="cls-4" d="M249.11,38.11c-1.7-.1-3.59.24-5-.43-1.24-.57-2-2.27-3.05-3.67l8.08-1.78Z"/>
        <path class="cls-4" d="M22.45,52.54c.26.3,1.18,1.5,2.22,2.57,2.55,2.64,2.52,4.17-.61,5.92a6.93,6.93,0,0,1-7.77-.17c-1.58-1.1-1.27-1-2.22,1.08-.87,1.83-2.5,3.31-4,5.16-1.47-2.68-2.28-4.86-5.55-3.94-1.13.32-2.68-.88-4.12-1.94C7.3,60.31,14.34,60,11,49.72Z"/>
        <path class="cls-4" d="M166.63,17.43h3.51l.58,1-6,4.25c-.75-.87-1.57-2.33-2-2.22-4.71,1.3-3.41-1.3-2.15-4-3.47,1-4.56-.87-5.29-3.46-.26-.9-1.5-1.49-1.93-2.39-.56-1.19-1.34-3.49-1-3.68a18.17,18.17,0,0,1,5.48-2.08c.53-.12,1.61.76,1.94,1.43,1.66,3.37,3,7,6.83,8.6C166.88,15,166.63,16.39,166.63,17.43Z"/>
        <path class="cls-4" d="M207.07,26.32c2.61,2.28,6.44,4.05,6.88,6.45s-2.48,5.43-3.86,8.06l-4.48-.29C202,33.26,202,33.26,207.07,26.32Z"/>
        <path class="cls-4" d="M59.3,23.25c-2.47-.78-4.4-1.13-6-2a4.11,4.11,0,0,1-2-2.93c.07-3-1.34-6.88,3.79-7.56.61-.08,1-2,1.46-3,.85,1.74,1.66,3.41,2.52,5.2-1.12,1.75-2.37,3.43.22,5.57C60.74,19.69,61.25,21.94,59.3,23.25Z"/>
        <path class="cls-4" d="M203.38,69.46c1.71-2.31-1.34-3.41-2.94-5.15,1.65-2.61,4.6-2.6,7.17.07,2.06,2.15,4.19,4.26,6.08,6.56.6.73.53,2,.77,3-1-.12-2.07,0-2.81-.42-1.65-1-3-2.55-4.68-3.49C206,69.49,204.53,69.62,203.38,69.46Z"/>
        <path class="cls-4" d="M211.57,52c.68-1.7,1-3.67,2.11-4.88.91-1,2.8-1.18,4.3-1.4a9.51,9.51,0,0,1,1,2.88,15.5,15.5,0,0,1,.64,4.48c-.22,2.43-2.22,3.17-4.17,1.75Z"/>
        <path class="cls-4" d="M55.91,55.07c-1-4.19,1.41-6.79,5.61-5.77.77.18,1.46,1.32,1.88,2.17,1.24,2.52,2.33,5.11,3.38,7.44a28,28,0,0,1-3.36-.32,2.88,2.88,0,0,1-1.83-1.06C59.59,54.05,59.52,54,55.91,55.07Z"/>
        <path class="cls-4" d="M30.17-3.32,32.1-.25A18,18,0,0,1,34.82-1.6c2.23-.65,3.92-.27,4,2.55a6.63,6.63,0,0,1,0,2.18c-.49,1.43-1.19,2.8-1.81,4.2-1.32-.6-3.28-.85-3.85-1.87A69.69,69.69,0,0,1,29.62-3.1Z"/>
        <path class="cls-4" d="M63.23,79.12l-1.12,4.24c-4.65-1.46-9.17-5.46-9-8.21.38-6.21,2.28-9.87,5.28-10.39a47.46,47.46,0,0,0-2,7.09,19.23,19.23,0,0,0,.51,6.62c.17.68,1.79,1.3,2.81,1.43S61.81,79.47,63.23,79.12Z"/>
        <path class="cls-4" d="M5,35c.34-1,.72-1.92,1-2.9s.43-2.05.55-2.64l6.6-4L9.47,31.78,8.94,31,7.48,36.89l-1-.69L2,39.45c-.31-2.23-.52-3.8-.83-6Z"/>
        <path class="cls-4" d="M183,35.88l3.36-5,7.1,2.7,1.39-1.73,2.24,3.94a41.66,41.66,0,0,0-6.19-.72c-1,0-1.86,1.13-2.88,1.39a42.18,42.18,0,0,1-4.66.69Z"/>
        <path class="cls-4" d="M186.68,81.71,185.08,80c1.53-2,2.55-3.48,3.75-4.83,1-1.11,2.17-2,3.26-3,.62.87,1.26,1.73,1.85,2.63s1,1.63,1.9,3.2l-6.16-.86Z"/>
        <path class="cls-4" d="M47.55,57.74l5.14,3.64-4.12,5.11-1-.56Z"/>
        <path class="cls-4" d="M117.05,9.69a30.08,30.08,0,0,1-1,5c-.11.32-2.16.47-2.65,0-.86-.81-1.91-2.85-1.61-3.18,1.07-1.13,2.69-1.75,4.09-2.57Z"/>
        <path class="cls-4" d="M108.52,15.22l-5.09-2.86,2.93-3.53-2.14-1.72,3.49-2C108,8.64,108.22,11.51,108.52,15.22Z"/>
        <path class="cls-4" d="M48.7,30.4c-.6,5.71.18,6.62,4.27,6.37l.16.89c-1.72.31-3.87,1.4-5.06.74-1.45-.8-2.43-3-2.92-4.74C45,33.09,47,31.91,48.7,30.4Z"/>
        <path class="cls-4" d="M4.46,82.81c-2.75-3.54-.51-5.76.46-8,.32-.72,2-.84,3.34-.81-1.56,1-4,1.06-1.83,3.88C6.93,78.5,5.32,80.76,4.46,82.81Z"/>
        <path class="cls-4" d="M17,85l5-7.32,3.3-.55C24.22,81.86,20,82.69,17,85Z"/>
        <path class="cls-4" d="M182.34,86.64c-4.33.24-5.72-3.06-7.71-5.38C176.53,80.46,181.27,83.5,182.34,86.64Z"/>
        <path class="cls-4" d="M80.84-.46c.08,1.42.17,2.84.33,5.62L76,2.49l3.84-3.6Z"/>
        <path class="cls-4" d="M190.79,49l-.61-7.14C194.54,44.28,194.75,46.63,190.79,49Z"/>
        <path class="cls-4" d="M235.89-2l-2.58,3.57c-2.92-2.43-3.46-5.43-1.63-8.39C233.11-5.23,230.78-1.11,235.89-2Z"/>
        <path class="cls-4" d="M66.54,12.87l-4.4,6.78c-.31-2.38-.6-4.61-.88-6.78Z"/>
        <path class="cls-4" d="M3.28,42.81l-4,7.06-.7.08c0-1.9-.33-3.9.17-5.65C-1.1,43.63,1,43.5,3.28,42.81Z"/>
        <path class="cls-4" d="M99.65,58.05l-2.78,3.18.09.93.38-5.57,3.92,1.51Z"/>
        <path class="cls-4" d="M143.88,86.26l-4.32-2c.44-.9.87-1.81,1.3-2.72l4,3.3Z"/>
        <path class="cls-4" d="M68.94,21.71v5.87l-.64.19-3.15-5Z"/>
        <path class="cls-4" d="M132.92,78.11l-4.11,6.41C127.67,81.07,128.85,79.2,132.92,78.11Z"/>
        <path class="cls-4" d="M203.33,78.77l-2.22,3.94-1.85-3.42,3.42-1.7Z"/>
        <path class="cls-4" d="M188.47,58l-1.39-4.42,4.24-.34c-.61,1.66-1.21,3.28-1.8,4.9Z"/>
        <path class="cls-4" d="M135.92,11c-.48-1-1.51-2.09-1.3-2.87s1.63-1.34,2.51-2l.93.76-1,3.81Z"/>
      </g>
    </g>
  </g>
  <g>
    <g>
      <polygon class="cls-4" points="246.29 309.03 278.1 206.39 339.22 247.73 357.32 200.3 342.1 185.04 339.26 194.73 345.97 201.28 328.99 198.46 328 164.58 356.99 166.47 374.39 190.87 355.96 272.07 296.27 253.88 299.62 366.15 246.29 309.03"/>
      <polygon class="cls-5" points="257.54 321.08 283.41 226.91 346.9 258.35 368.28 198.12 340.58 175.96 333.75 199.25 328.99 198.46 328 164.58 356.99 166.47 374.39 190.87 355.96 272.07 296.27 253.88 299.62 366.15 257.54 321.08"/>
    </g>
    <g class="cls-6">
      <g id="_2s2bg4-2" data-name="2s2bg4">
        <g>
          <path class="cls-4" d="M281.37,236.26c.1.64.23,1.27.27,1.92,0,.11-.44.41-.54.36-1-.5-1.82.4-2.76.18-.59-.14-1.18-.11-1.23.74,0,0-.19.11-.29.13-.72.13-.72.13-.28.79l-1.13,1-.47-1.19-1.23-.15.36,1c-.31-.11-.6-.14-.61-.22a12.36,12.36,0,0,1-.27-2.76,4,4,0,0,1,.87-1.78c.16-.23.69-.46.88-.36a4.48,4.48,0,0,1,1.14,1c.45.49.86,1,1.15,1.36a4.36,4.36,0,0,1,.83-1.45c.24-.18.81.07,1.23.13a16.63,16.63,0,0,0,1.7.18c.07,0,.14-.52.21-.8Zm-7.15,3.31.33.09c.11-.41.36-.86.26-1.22-.05-.2-.67-.3-1-.34-.1,0-.23.42-.35.65l1.05.3Z"/>
          <path class="cls-4" d="M287,263.78c-.46,0-1,.05-1.06-.08-.3-.69-.86-1.7-.59-2.11a18.67,18.67,0,0,0,.9-2.1c.08-.15,1-.09,1.32.15a12.07,12.07,0,0,1,2.23,2.23,1,1,0,0,1-.52,1.68l-.17,1.74L287,264.23Z"/>
          <path class="cls-4" d="M264.27,309c.56,0,1.2,0,1.84-.08a3.12,3.12,0,0,0,1.07-.18c1.25-.62,1.65.11,1.93,1.12,0,0,.15,0,.48.08l-.92-1.68,3.1-1.94a11.86,11.86,0,0,1,1.44.61,5.27,5.27,0,0,1,.86.78L273,308l-1.48.36-1.14.27c0,1.66-.35,2.14-1.64,2.4-.79-1.83-.79-1.83-2.73-1.64l1.22,1.91-3.06-.9Z"/>
          <path class="cls-4" d="M283.25,299a22.24,22.24,0,0,1,.56,2.35,7,7,0,0,1,0,2.14c-.1.61-.35,1.13-1.27.65-.37-.2-1.12.31-1.68.54a9,9,0,0,0-1.05.57l-1-1.57,1.18.26-.23-.71a3,3,0,0,0,2-2.48,7.39,7.39,0,0,1,1-1.83Z"/>
          <path class="cls-4" d="M324.63,247.84c-1.46.56-3.18,1.5-5.26.8.13-.18.16-.29.21-.3s.4,0,.64,0l-.17-1.06.75-.07.43-1,.28.06.62,1.88.3-.05c-.14-.85-.32-1.7-.4-2.56,0-.35,0-.92.26-1a4.1,4.1,0,0,1,1.78-.5c.12,0,.37.79.42,1.24C324.59,246,324.58,246.85,324.63,247.84Z"/>
          <path class="cls-4" d="M274.51,296.2a2.66,2.66,0,0,0-.82.13,3.56,3.56,0,0,0-.66.63c-.21-.15-.5-.55-.77-.53a18.15,18.15,0,0,0-3.6.42,3,3,0,0,1-2.33-.6c-.62-.33-.92-.38-1.37.21a2.19,2.19,0,0,1-1.26.5c.77-1.49-1.19-1.38-1.25-2.22,2.07.31,4.07.7,6.09.86,1.55.13,3.13-.07,4.69-.08a7.13,7.13,0,0,1,1.27.25Z"/>
          <path class="cls-4" d="M287.25,246.62l1.63-1.22c0,2-2.07,2.1-2.72,3.35l-.21-.91-.54.45-1-1,1,2.94c-1.53,0-2.55-2.58-1.66-3.54.49-.53.93-1.13,1.35-1.64.36.24.69.44,1,.67S286.84,246.27,287.25,246.62Z"/>
          <path class="cls-4" d="M372.34,161.47l0,1.52-1,0c.2,2-1.29,2.43-2.71,3-1.44-.85-1.55-1.37-.48-2.75l.93.43.64-1.74Z"/>
          <path class="cls-4" d="M368,225c-.49.42-1,.64-1.16,1-.51,1.1-1.14.56-1.69.17a6.68,6.68,0,0,1-1.17-1.26c-.49-.61,0-1.66,1.17-2.36.67-.41,1.11-.37,1.49.45A12.66,12.66,0,0,0,368,225Z"/>
          <path class="cls-4" d="M361,202.6l.75.89-1.19,1.11-.66,2.11-2.08-.91.89-1.07-.8-.67c1-.56-.72-2,.93-2.52l1.1,1.94Z"/>
          <path class="cls-4" d="M334.32,254.77c.69-.54.81-1.93,2.12-1.38.5.22,1.45.17,1.22,1.25-.18.87.52,2.17-.82,2.45C335.18,257.44,335,255.78,334.32,254.77Z"/>
          <path class="cls-4" d="M311.43,235.06c-.1.64-1.1,1.34.36,1.79a12,12,0,0,0-1.79,1.23c-.37.37-.49,1-.81,1.41a11.27,11.27,0,0,1-1.06,1.11l-.61-1.45.42-.54.51.61.32-.1-.41-2.44C309.3,236.54,309.47,234.24,311.43,235.06Z"/>
          <path class="cls-4" d="M325,155.62c.58,1,1.54,2.13.28,3.48l.11-.87-1.06.26-.08-.27,1.17-.38,0-.33c-.37,0-1-.09-1.09.09-.6,1-1.1,1-1.7,0-.49-.81-1-.31-1.57,0a2.19,2.19,0,0,1-.63.11l-.12-.34a9.7,9.7,0,0,1,2.12-1.51A9.51,9.51,0,0,1,325,155.62Z"/>
          <path class="cls-4" d="M345.33,177c1.07-.07,1.75-.1,2.43-.17,1.48-.14,2.33.74,1.78,1.92a1.41,1.41,0,0,1-1.05.61,3.44,3.44,0,0,1-2.11-.26C345.83,178.65,345.67,177.73,345.33,177Z"/>
          <path class="cls-4" d="M341.15,164.3l2.07-2.61-.21-.25-1,.58v-.84l2.93-.8c-.44,1.28-.88,2.66-1.38,4-.1.26-.4.62-.62.62s-.91.52-.9-.37C342.05,164.54,341.53,164.44,341.15,164.3Z"/>
          <path class="cls-4" d="M369.91,187.14c-.36,1-.57,2.06-.82,2.08a7.49,7.49,0,0,1-2.87-.5c-.48-.17,0-1.95.75-2.14S368.65,186.87,369.91,187.14Z"/>
          <path class="cls-4" d="M289.72,299.92c.49-.68,1.7-1,.83-2.05,1.51-.32,2.22.05,2.69,1.58.26.8.35,1.72-.36,1.95Z"/>
          <path class="cls-4" d="M330.82,173.79c-.06,0-.12,0-.14,0a5.12,5.12,0,0,0-1.09-1c-.49-.23-1.24-.07-1.58-.4s-.4-1.06-.57-1.62a4.12,4.12,0,0,1,1.39-.29C330.8,170.71,330.83,170.8,330.82,173.79Z"/>
          <path class="cls-4" d="M302.68,243.69c.74,2.37.19,3.21-2.43,3.67C299.43,245.92,300.73,244,302.68,243.69Z"/>
          <path class="cls-4" d="M317.14,263.86l.09,1.51c-1.38.3-2.87-.55-4.2.72l-.72-1.48a11.18,11.18,0,0,1,2.2-.82A15.93,15.93,0,0,1,317.14,263.86Z"/>
          <path class="cls-4" d="M301.45,267.59a6.06,6.06,0,0,1-1.86.41,1.44,1.44,0,0,1-1-1c-.07-1.09,0-2.25,1.41-2.63.13,0,.22-.21.27-.26Z"/>
          <path class="cls-4" d="M285.34,274.52a2.86,2.86,0,0,1-2.34,1.75c-.69.17-1.25-.2-1-.85.4-1.06.5-1.95-.66-2.79Z"/>
          <path class="cls-4" d="M357.15,264.11c-.41-.76-1-1.3-.6-2.24a1.55,1.55,0,0,0-.13-1.06,17.24,17.24,0,0,0-.79-1.54c.89-.59,1.63-.55,2.07.2.34.6.53,1.4-.56,1.77C358.05,262.1,358,263,357.15,264.11Z"/>
          <path class="cls-4" d="M291.38,346.47c.07-.88.47-1.39,1.24-1.34,2.44.17,2.46.21,2.65,1.89a12.21,12.21,0,0,1-1.91,0A13.76,13.76,0,0,1,291.38,346.47Z"/>
          <path class="cls-4" d="M361.77,237.08a2.69,2.69,0,0,1-1.6,2.45c-.69.27-1.13.1-1.15-.62s-.07-1.53-.1-2.16Z"/>
          <path class="cls-4" d="M356.51,242.89a11.86,11.86,0,0,1-1.38,2.14c-.75.75-1.49.41-2.14-.73.36-.37.85-.65,1-1.06.3-.81.65-1,1.38-.52A3.4,3.4,0,0,0,356.51,242.89Z"/>
          <path class="cls-4" d="M300.39,349.59l-1.93,1.13-1.64-1.58-.63.73-.2-.14.4-1.67,1.27-.21c0,.45.08.86.13,1.27.47-.18,1-.56,1.4-.47S300,349.28,300.39,349.59Z"/>
          <path class="cls-4" d="M312.11,247.82c.27-.65.38-1.25,1.29-1.29.29,0,.47-.84,1.13-1s.78-.17.52.81l-.16-.81c-.77,1.15.76,1.62.55,2.76l-1.32-.69C313.79,249.27,312.89,247.88,312.11,247.82Z"/>
          <path class="cls-4" d="M285,343.94a15.7,15.7,0,0,1,1.91-.94,3.23,3.23,0,0,1,1.14.1,12.21,12.21,0,0,1-.62,2c-.07.14-.82.06-1.17-.1A6.86,6.86,0,0,1,285,343.94Z"/>
          <path class="cls-4" d="M259.57,279a26.38,26.38,0,0,1-3.22-1.05c-.27-.13-.26-.88-.38-1.34l.37-.21,1.1.77C258.84,276.56,259.34,277,259.57,279Z"/>
          <path class="cls-4" d="M327.34,179.11c.79.91,1.11,1.71.43,2.26-.33.27-1.23.08-1.73-.17s-.14-1.65.52-2C326.82,179,327.24,179.11,327.34,179.11Z"/>
          <path class="cls-4" d="M293.79,229.9a8.16,8.16,0,0,1,1-.27,13.65,13.65,0,0,1,1.43,0,12.88,12.88,0,0,1-.22,1.75c-.08.3-.41.54-.82,1C294.72,231.51,294.29,230.75,293.79,229.9Z"/>
          <path class="cls-4" d="M250.16,313.45l-.49.73c-1.25-.17-3,.59-3.24-1.7C247.71,312.19,248.86,312.82,250.16,313.45Z"/>
          <path class="cls-4" d="M326.29,191.35l-2.44,2-.5-.3c.19-.69.18-1.64.63-2s1.39-.17,2.11-.21Z"/>
          <path class="cls-4" d="M265,274.28c.32-.6.05-1.86,1.45-1.77l1.35,3.12Z"/>
          <path class="cls-4" d="M376,190.61l-.85,1,1,0c.25,1.07-.78.87-1.17.91s-.36-.45-.33-.93-.48-1.18-.82-1.92l.84-.7Z"/>
          <path class="cls-4" d="M275.45,258.18c.73-.25,1.56-.8,2-.58s.61,1.19.91,1.88l-2.43,0Z"/>
          <path class="cls-4" d="M290.74,251.11c.17,1.54-.29,2.43-2.19,3.44a11.5,11.5,0,0,0,.31-1.11,10.46,10.46,0,0,0,.15-1.08Z"/>
          <path class="cls-4" d="M298.49,260.25c.16-.22.28-.52.47-.59a12.25,12.25,0,0,1,2.35-.65c.28,0,.62.38.93.58-.23.23-.44.62-.7.67a24.92,24.92,0,0,1-2.6.3C298.85,260.57,298.75,260.44,298.49,260.25Z"/>
          <path class="cls-4" d="M279.24,293.53c-.79.81-.82,2.36-2.38,2.4-.24,0-.49-.3-.73-.47l2.79-2.34Z"/>
          <path class="cls-4" d="M326.07,168.07c.31.13.31.13-2.19,1.85l-1-1.45Z"/>
          <path class="cls-4" d="M350.48,249.92c-1-.69-2.56-.57-1.79-2.26l1.31.22-.73-1.25C351.25,247.38,350.17,248.69,350.48,249.92Z"/>
          <path class="cls-4" d="M337.61,266.8c-.09.41-.15.76-.25,1.09s-.24.69-.36,1c-.24-.14-.66-.26-.67-.41a5.52,5.52,0,0,1,.2-1.39l-1.6-.08A1.79,1.79,0,0,1,337.61,266.8Z"/>
          <path class="cls-4" d="M297.51,328.22c.36-2,2-.53,2.91-1.27l.45.92A5.41,5.41,0,0,1,297.51,328.22Z"/>
          <path class="cls-4" d="M266.3,327.14l0-1.05.44.86.68-.65c-.06-.64-.27-1.24-.11-1.36a4.16,4.16,0,0,1,1.36-.41c0,.44.22,1.12,0,1.28C268,326.36,267.56,327.51,266.3,327.14Z"/>
          <path class="cls-4" d="M362.57,176.11a3.07,3.07,0,0,1,0,.86c-.09.24-.44.61-.51.58-.31-.15-.82-.44-.81-.64.08-.9-1.27-1.62-.32-2.58a.56.56,0,0,1,.51-.08.48.48,0,0,1,.1.48C360.86,175.88,361.8,175.89,362.57,176.11Z"/>
          <path class="cls-4" d="M370,200.91c-1.14-1.36-1.2-2-.26-2.64a1,1,0,0,1,.83.2c.06.68.95,1.63-.49,1.94C370,200.42,370,200.69,370,200.91Z"/>
          <path class="cls-4" d="M348.55,168.44c1.53,1.25-.23,1.74-.32,2.51l-1.79-.06Z"/>
          <path class="cls-4" d="M281.82,334.52l.05,1.2,1.05-.31.27.9-1.87.62-.73-1,.13-.09,1,.62c0-.21,0-.58-.06-.61-.54-.16-.66-1.7-1.73-.21C280.37,334.36,281,334.11,281.82,334.52Z"/>
          <path class="cls-4" d="M331.05,255.17c-1.22-.59-1.36-1.38-.38-2.33l.4,1,1.25-.63,1,1.23-.28.26-1-.82-1.16.41Z"/>
          <path class="cls-4" d="M291.86,282.24l.5,1.2c-2-.16-1,1.82-1.72,2.65C289.7,284.61,289.91,283.93,291.86,282.24Z"/>
          <path class="cls-4" d="M323,257.75l-.22-.86,1.75,1.21c-.84,1.45-1.71,1.17-2.71-1Z"/>
          <path class="cls-4" d="M373.25,239.17c.77,1.36.7,1.53-.41,1.77-.21,0-.37.33-.7.63-.22-.35-.74-1-.67-1.08A14.16,14.16,0,0,1,373.25,239.17Z"/>
          <path class="cls-4" d="M362.69,198.7a5.74,5.74,0,0,1-.25-1.68c.05-.25.69-.67.83-.59a6,6,0,0,1,1.16,1Z"/>
          <path class="cls-4" d="M289.12,311.6c-1-.73-.49-2.54,1.09-3.35Z"/>
          <path class="cls-4" d="M284.53,333.4l-2,.6c.23-.7-1.43-.92-.37-1.64C283.05,331.76,283.76,332.5,284.53,333.4Z"/>
          <path class="cls-4" d="M372.15,225c-1.68.2-2.57-1.24-2-3.14Z"/>
          <path class="cls-4" d="M352,223.7l-1.24,1.23-1.38-.56a2.22,2.22,0,0,1,2.18-1.21C351.81,223.18,352,223.64,352,223.7Z"/>
          <path class="cls-4" d="M294.9,242a7.19,7.19,0,0,1,.9-.92,5.5,5.5,0,0,1,1.21-.61c.08,0,.4.3.39.32-.21.33-.47.63-.71.95C296.17,242.44,295.6,242.81,294.9,242Z"/>
          <path class="cls-4" d="M289.46,281.86l2.87-4.15.31.2c-.84,1.35-1.68,2.7-2.56,4C290,282,289.59,281.88,289.46,281.86Z"/>
          <path class="cls-4" d="M287,273.13c.31,1.41,1,1.24,1.4.82l1.1.18c-.16,1-1.21,1.15-3.09.3Z"/>
          <path class="cls-4" d="M278.25,341.58l.47-2c.28.07.79.13.79.21a19.28,19.28,0,0,1-.06,2Z"/>
          <path class="cls-4" d="M283.6,240c.49-.57,1.39-.57,2.74.12l-1,1.11Z"/>
          <path class="cls-4" d="M362.13,223.32c0-.13,0-.67.2-.74.87-.37,1.43-1.62,3-.87Z"/>
          <path class="cls-4" d="M348.31,185.67a13.75,13.75,0,0,1,1.43-.73c.08,0,.49.4.46.53-.13.41-.31,1-.61,1.12s-.83-.25-1.26-.4Z"/>
          <path class="cls-4" d="M359.45,254.37l1.19-.42.14.17-.87.74.7,1-1.91.33Z"/>
          <path class="cls-4" d="M341,242.51l.44.67a2,2,0,0,0,.34-.1,6.54,6.54,0,0,1,.79-.32s.17.29.26.45l-.81.38c-.43.2-.85.38-1.45.64a1.87,1.87,0,0,1-.12-.77A3.54,3.54,0,0,1,341,242.51Z"/>
          <path class="cls-4" d="M342.24,205.33c-.57-.92-1.7-1.71-.1-2.61A1.87,1.87,0,0,1,342.24,205.33Z"/>
          <path class="cls-4" d="M253.7,316.72c-.33-.15-.86-.24-.93-.47a1.74,1.74,0,0,1,.23-1.18c.05-.11.76-.07.83.07a4.85,4.85,0,0,1,.28,1.29Z"/>
          <path class="cls-4" d="M371.73,221.5l-.81-1.46,1.2-.67C372.82,220.3,372.62,221.12,371.73,221.5Z"/>
          <path class="cls-4" d="M319.1,243.81l1.17-.31.13.37a4,4,0,0,1-1.28.29c-.17,0-.46-.58-.42-.85.11-.66.19-1.47,1.33-1.37Z"/>
          <path class="cls-4" d="M282.3,240.29c.54.83,1,1.59,1.51,2.38,0,.06-.13.25-.2.37C282,242.3,281.77,241.76,282.3,240.29Z"/>
          <path class="cls-4" d="M249.06,317.93c.4,2.09.89,2.47-.76,3.41C248.55,320.2,248.81,319.07,249.06,317.93Z"/>
          <path class="cls-4" d="M277.62,315.16c.63.24,1.1.38,1.54.6.18.09.43.41.38.49a.87.87,0,0,1-.55.45,2.09,2.09,0,0,1-1.31-.25C277.46,316.23,277.63,315.62,277.62,315.16Z"/>
          <path class="cls-4" d="M262.53,307.82l1.73.38-1,1.18-1.29-.21Z"/>
          <path class="cls-4" d="M365.18,232l1.21-1.29,1.72,1-2.76.45Z"/>
          <path class="cls-4" d="M322,164.93l.51-1.33,1.39-.15C323.92,164.54,323.51,164.86,322,164.93Z"/>
          <path class="cls-4" d="M338.29,240.39c-.84.72-2.31.67-2.23,2.29C335.78,240.67,336.18,240.31,338.29,240.39Z"/>
          <path class="cls-4" d="M275.88,264a15.14,15.14,0,0,1,1.36-.87.75.75,0,0,1,.62,0,.55.55,0,0,1,.15.49C277.8,264.4,276.61,264.64,275.88,264Z"/>
          <path class="cls-4" d="M347.78,218.41c-.6.51-.9.91-1.28,1s-.7-.17-1-.38c-.09-.06.07-.68.15-.68C346.24,218.33,346.81,218.38,347.78,218.41Z"/>
          <path class="cls-4" d="M371,184.35a6.5,6.5,0,0,1,1.27-.73c.16-.06.52.3.67.54a.73.73,0,0,1,0,.64c-.06.1-.38.06-.57,0-.38,0-.75-.09-1.12-.14Z"/>
          <path class="cls-4" d="M297,318.35c1.4-.36,1.16.8,1.43,1.49C297,320,297,320,297,318.35Z"/>
          <path class="cls-4" d="M322.53,241.18c.23-.55.43-1.13.7-1.69a.71.71,0,0,1,.5-.37c.15,0,.36.28.4.47C324.29,240.38,323.44,241.19,322.53,241.18Z"/>
          <path class="cls-4" d="M327.86,253a2.75,2.75,0,0,1-.58-3.53l.06,2.14C328.42,252.38,328.46,252.47,327.86,253Z"/>
          <path class="cls-4" d="M275,288.13,273.11,287l.78-.74,1.5,1.43Z"/>
          <path class="cls-4" d="M368.52,176.75l.08-1.57,1.64.6v.3Z"/>
          <path class="cls-4" d="M287.11,316.25l-2,.71c.48-.65.57-1.8,1.73-1.41C287,315.61,287,316.09,287.11,316.25Z"/>
          <path class="cls-4" d="M333.18,259l.38,2-.42.08c-.6-.57-1-1.18-.42-2Z"/>
          <path class="cls-4" d="M369.74,183.78c-1-.26-1.32-.75-.57-1.7l1.1.46Z"/>
          <path class="cls-4" d="M340.17,166.61l1.39-.56.32.82-1.45.47Z"/>
          <path class="cls-4" d="M353.78,268l1.9-1.58C355.4,267.53,355.22,268.39,353.78,268Z"/>
          <path class="cls-4" d="M298.63,240l-1.27.06c.1-.33.12-.78.34-.94a2.74,2.74,0,0,1,1.1-.18Z"/>
          <path class="cls-4" d="M369.24,168.94c0,.26,0,.45,0,.63s0,.29.1.78l-2-.92.12-.39Z"/>
          <path class="cls-4" d="M322.19,160.84a2.34,2.34,0,0,1,2.39,1.29l-2.59-.74Z"/>
          <path class="cls-4" d="M358.37,230l.92,1.1-1.05.51-.43-1.35Z"/>
          <path class="cls-4" d="M280.53,327.74l-1.38.25.15-1.78.53-.08Z"/>
          <path class="cls-4" d="M375.15,252.7l-2-.54c.75-1.35,1.17-1.34,2.05-.15Z"/>
          <path class="cls-4" d="M338.53,258.88l0,1,1-.09-.65,1.12-1.2-.71.64-1.31Z"/>
          <path class="cls-4" d="M270.39,259.6l.59-1.33.82.41-.82,1.24Z"/>
          <path class="cls-4" d="M356.63,270.69l.41-.81-.72-.62c.05-.1.08-.22.11-.21l1.38.21-.83,1.61Z"/>
          <path class="cls-4" d="M359.4,163.72c-.47-.06-.89,0-1.1-.18a1.14,1.14,0,0,1,0-.86,5.21,5.21,0,0,1,1.25,0Z"/>
          <path class="cls-4" d="M346.59,197l1.51-.34c-.05.3,0,.81-.16.86a4.7,4.7,0,0,1-1.26.11Z"/>
          <path class="cls-4" d="M273.6,284.64l-1.79.5,1-2.12Z"/>
          <path class="cls-4" d="M250.25,300.82v-2.43c.2.18.66.41.66.64a10.09,10.09,0,0,1-.29,1.87Z"/>
          <path class="cls-4" d="M346.76,216.14c.29-.65-1-1.51.73-2.21l-.33,2.29Z"/>
          <path class="cls-4" d="M285.47,238.89l-1.41-.73c.12-.19.25-.54.37-.54C285.09,237.62,285.78,237.66,285.47,238.89Z"/>
          <path class="cls-4" d="M302.42,284.9c.8-.37,1.44-1.16,2.51-.53a10,10,0,0,0-1.56.44c.14,1-.44.51-.81.44C302.52,285.24,302.5,285.12,302.42,284.9Z"/>
          <path class="cls-4" d="M363.62,239.43l1.34-2.27C365.35,238.39,364.61,239,363.62,239.43Z"/>
          <path class="cls-4" d="M257.73,327.88a7,7,0,0,1-1.26-.77c-.1-.09.14-.56.29-1.07L258,327.5Z"/>
          <path class="cls-4" d="M343.46,257.21l2.33.73-1.34.8Z"/>
          <path class="cls-4" d="M351.54,265.06l-.27,2.1-.47-.06c-.58-.79.28-1.39.24-2.1Z"/>
          <path class="cls-4" d="M279.28,230.6l-.73,1-1.11-.94.68-.94c.35.28-.18,1.7.93.7Z"/>
          <path class="cls-4" d="M290.57,295.89l.41-1.48,1,.72-1,1.05Z"/>
          <path class="cls-4" d="M304.28,254.74l-2-.57,1.29-1.08Z"/>
          <path class="cls-4" d="M361.51,247.35a5.44,5.44,0,0,1-.75-.12,4.78,4.78,0,0,1,.13-1.31c0-.08.53,0,.82,0Z"/>
          <path class="cls-4" d="M297,352.49c-.06.45,0,.94-.13.95a1.6,1.6,0,0,1-1-.08c-.13-.08-.05-.55-.07-.84Z"/>
          <path class="cls-4" d="M365.76,158.17c-.56-.69-1.52-1.19-.23-2.19C365.38,156.76,366.53,157.21,365.76,158.17Z"/>
          <path class="cls-4" d="M361.06,157.54l-1.52,1.79-.36-.28,1.36-2Z"/>
          <path class="cls-4" d="M320.29,263.91a14.29,14.29,0,0,1-1.13-1.07s.24-.38.37-.58c.17.12.39.19.5.35a10.25,10.25,0,0,1,.54,1Z"/>
          <path class="cls-4" d="M295.92,336.5l.86,1-1.36.64.2-1.45Z"/>
          <path class="cls-4" d="M344.45,190.31l1.31,1.55C344.52,192.22,344.35,192.05,344.45,190.31Z"/>
          <path class="cls-4" d="M339.59,240.42l2.12-.17C341,241.65,340.39,241.4,339.59,240.42Z"/>
          <path class="cls-4" d="M373.69,226.41l-1.38-1C373.52,224.87,374,225.09,373.69,226.41Z"/>
          <path class="cls-4" d="M275.6,233.68l.69,2.41C275.19,235.48,275,234.6,275.6,233.68Z"/>
          <path class="cls-4" d="M328.22,157.24l1.4,1.44c-1.61.68-1.31-.62-1.65-1.23Z"/>
          <path class="cls-4" d="M326.52,197.88l-.73-2,1.42.82-.32,1.07Z"/>
          <path class="cls-4" d="M374.53,265.21l.61,1.43-.53.26-.72-1.4Z"/>
          <path class="cls-4" d="M373.9,172.72l1.16-.63.26.25-.48,1.19-.94-.39Z"/>
        </g>
      </g>
    </g>
  </g>
</svg>
