<svg id="wave" xmlns="http://www.w3.org/2000/svg" xmlns:xlink="http://www.w3.org/1999/xlink" viewBox="0 0 4349.09 192.8">
  <defs>
    <style>
      .cls-1 {
        fill: url(#linear-gradient);
      }
    </style>
    <linearGradient id="linear-gradient" x1="2174.55" x2="2174.55" y2="192.8" gradientUnits="userSpaceOnUse">
      <stop offset="0" stop-color="#129081"/>
      <stop offset="1" stop-color="#2c3b38"/>
    </linearGradient>
  </defs>
  <path class="cls-1" d="M4349.09,49V192.8H0V49C53.73,49,66.37,0,115.36,0s39.51,64.79,117,64.79S322.39,0,366.64,0,420.37,64.79,489.9,64.79,599,0,663.74,0s34.77,64.79,124.85,64.79S918.18,12.64,964,12.64s81.66,37,123.26,36.35c53.73,0,66.38-49,115.37-49s39.51,64.79,116.94,64.79S1409.66,0,1453.91,0s53.73,64.79,123.27,64.79S1686.22,0,1751,0s34.77,64.79,124.85,64.79,129.59-52.15,175.42-52.15,81.66,37,123.27,36.35c53.73,0,66.37-49,115.36-49s39.51,64.79,117,64.79S2496.93,0,2541.18,0s53.74,64.79,123.27,64.79S2773.49,0,2838.29,0s34.77,64.79,124.84,64.79,129.59-52.15,175.42-52.15,81.66,37,123.27,36.35c53.73,0,66.37-49,115.36-49s39.51,64.79,117,64.79S3584.21,0,3628.46,0s53.73,64.79,123.26,64.79S3860.77,0,3925.56,0s34.77,64.79,124.85,64.79S4180,12.64,4225.83,12.64,4307.49,49.65,4349.09,49Z"/>
</svg>
